<svg xmlns="http://www.w3.org/2000/svg" width="206" height="48" fill="none"><mask id="a" width="206" height="48" x="0" y="0" maskUnits="userSpaceOnUse" style="mask-type:luminance"><path fill="#fff" d="M206 0H.5v48H206z"/></mask><g mask="url(#a)"><path fill="#a4a6a7" d="M54.125 0v48h10.184V34.052h3.924V48h20.063V37.932h-9.88v-3.88h9.88V0zm23.987 23.983H64.275V10.068h13.837zm39.246 13.949h-13.837V0h-10.15v48h34.137V0h-10.15zM132.583 0v29.034h23.987v8.898h-23.987V48h34.171V18.966h-23.987v-8.898h23.987V0zm39.246 0v10.068h12.011V48h10.15V10.068H206V0z"/><path fill="#cd412b" d="M49.05 0H.5v48h48.55z"/><path fill="#1e2020" d="m16.402 21.642-10.32-1.673v10.169l10.32-1.673zm5.176 0h-3.451v6.79h3.45zm7.714-5.921 1.69-10.201H20.698l1.692 10.202zm-.034 1.706H22.39v3.412h6.868zm-3.418 5.215-2.44 2.412 2.44 2.413 2.44-2.413zm4.264 11.41 6.056 8.429 7.308-7.225-8.526-5.988zm1.2-8.39-4.856 4.801 2.44 2.413 4.856-4.802z"/></g></svg>