<svg id="ZelNodes" xmlns="http://www.w3.org/2000/svg" width="4035.855" height="800.007" viewBox="0 0 1352 268">
  <defs>
    <style>
      .cls-1, .cls-4 {
        fill: #36c9a5;
      }

      .cls-1, .cls-2, .cls-3, .cls-4 {
        fill-rule: evenodd;
      }

      .cls-3 {
        fill: #232220;
      }

      .cls-4 {
        stroke: #36c9a5;
        stroke-linecap: round;
        stroke-width: 10px;
      }
    </style>
	<linearGradient id="roundgrad" x2="0" y2="1">
		<stop offset="0%" stop-color="#fff" />
    	<stop offset="100%" stop-color="#e5e5e5" />
  	</linearGradient>
  </defs>
  <path id="ZelNodes_svg" data-name="ZelNodes svg" class="cls-1" d="M307.437,86.018h75.278l-80.938,98.2v22.64H430.542v-25.47H342.529l83.768-98.2V60.548H307.437v25.47Zm159.046,34.809a42.889,42.889,0,0,1,3.254-15.282,40.645,40.645,0,0,1,7.924-12.31,35.241,35.241,0,0,1,11.886-8.207,38.765,38.765,0,0,1,15.424-2.972,33.4,33.4,0,0,1,14.857,3.255,36.512,36.512,0,0,1,11.32,8.49,39.334,39.334,0,0,1,7.358,12.31,52.182,52.182,0,0,1,3.255,14.716H466.483Zm107.54,21.225a83.825,83.825,0,0,0-2.123-31.837,77.4,77.4,0,0,0-13.159-27.31,68.04,68.04,0,0,0-22.782-19.1,65.584,65.584,0,0,0-30.988-7.217,66.385,66.385,0,0,0-51.648,23.064,75.632,75.632,0,0,0-14.15,24.621,88.046,88.046,0,0,0-4.952,29.573,98.859,98.859,0,0,0,4.669,31.13,67.2,67.2,0,0,0,13.867,24.338,63.1,63.1,0,0,0,22.5,15.848q13.3,5.658,30.564,5.66a79.27,79.27,0,0,0,22.781-3.254,64.727,64.727,0,0,0,19.669-9.622,60.667,60.667,0,0,0,23.772-36.932H541.478q-4.245,12.172-12.877,18.254t-22.781,6.084a40.109,40.109,0,0,1-17.546-3.537,34.722,34.722,0,0,1-12.169-9.481,40.335,40.335,0,0,1-7.217-13.867,56.13,56.13,0,0,1-2.4-16.414h107.54Zm12.735,64.807H619.02V4.8H586.758V206.859Zm55.467,0h12.452V20.079h0.566l128.482,186.78h14.716V4.8H785.989V190.162h-0.566L657.79,4.8H642.225V206.859Zm174.751-43.3a71.656,71.656,0,0,0,12.876,24.2,61.833,61.833,0,0,0,20.942,16.414q12.45,6.083,28.583,6.084t28.583-6.084A61.872,61.872,0,0,0,928.9,187.757a71.745,71.745,0,0,0,12.877-24.2,97.039,97.039,0,0,0,4.386-29.432,95.733,95.733,0,0,0-4.386-29.29,73.639,73.639,0,0,0-12.877-24.2A61.23,61.23,0,0,0,907.96,64.086Q895.5,58,879.377,58t-28.583,6.084a61.193,61.193,0,0,0-20.942,16.556,73.544,73.544,0,0,0-12.876,24.2,95.581,95.581,0,0,0-4.387,29.29A96.885,96.885,0,0,0,816.976,163.56Zm10.046-54.477a67.878,67.878,0,0,1,10.754-21.367,52.321,52.321,0,0,1,17.546-14.857,55.187,55.187,0,0,1,48.11,0,52.4,52.4,0,0,1,17.546,14.857,68.047,68.047,0,0,1,10.754,21.367,87.091,87.091,0,0,1,0,50.091,68,68,0,0,1-10.754,21.366A52.4,52.4,0,0,1,903.432,195.4a55.191,55.191,0,0,1-48.11,0,52.322,52.322,0,0,1-17.546-14.858,67.832,67.832,0,0,1-10.754-21.366A87.091,87.091,0,0,1,827.022,109.083Zm243.938,97.776h10.76V4.8h-10.76V93.942h-0.56a49.858,49.858,0,0,0-20.8-26.6,60.467,60.467,0,0,0-15.71-6.934A63.17,63.17,0,0,0,1016.63,58q-16.425,0-28.584,5.943a57.678,57.678,0,0,0-20.235,16.131,68.491,68.491,0,0,0-12.027,24.2,115.314,115.314,0,0,0-.283,58.864,72.273,72.273,0,0,0,11.32,24.2,55.826,55.826,0,0,0,19.527,16.7q11.886,6.222,28.3,6.226,19.53,0,33.11-8.631t22.64-25.895h0.56v31.13ZM992.574,195.4a49.069,49.069,0,0,1-16.839-14.858,66.227,66.227,0,0,1-9.9-21.366,94.324,94.324,0,0,1-3.254-24.763,105.835,105.835,0,0,1,2.971-25.187,62.032,62.032,0,0,1,9.622-21.508,49.067,49.067,0,0,1,16.839-14.857q10.188-5.519,24.622-5.519,13.86,0,24.2,5.66a48.268,48.268,0,0,1,16.83,15.141,69.981,69.981,0,0,1,9.77,21.508,94.8,94.8,0,0,1,3.25,24.762,93.693,93.693,0,0,1-3.25,24.48,66.4,66.4,0,0,1-9.91,21.366,50.929,50.929,0,0,1-16.69,15q-10.05,5.665-23.92,5.66Q1002.765,200.916,992.574,195.4Zm232.346-59.855c0-.751.04-1.742,0.14-2.971s0.14-2.308.14-3.255a90.57,90.57,0,0,0-4.1-27.592,68.7,68.7,0,0,0-12.03-22.64,56.711,56.711,0,0,0-19.67-15.424Q1177.655,58,1162.37,58q-16.695,0-29,6.368a60.945,60.945,0,0,0-20.52,16.98,73.361,73.361,0,0,0-12.31,24.621,103.5,103.5,0,0,0-4.11,29.29,105.874,105.874,0,0,0,3.97,29.574,67.331,67.331,0,0,0,12.02,23.772,57.3,57.3,0,0,0,20.1,15.848q12.015,5.8,28.16,5.8,26.31,0,42.3-13.584t20.8-39.054h-10.75q-4.83,20.376-17.59,31.838-12.78,11.461-34.62,11.461-13.35,0-23.41-5.094a47.712,47.712,0,0,1-16.74-13.867,62.148,62.148,0,0,1-10.08-20.376,85.98,85.98,0,0,1-3.4-24.338v-1.7h117.73ZM1107.47,126.2a88.268,88.268,0,0,1,4.54-22.074,58.057,58.057,0,0,1,10.5-18.819,51.979,51.979,0,0,1,16.74-13.018,50.9,50.9,0,0,1,22.99-4.953,47.421,47.421,0,0,1,21.7,4.811,50.161,50.161,0,0,1,16.18,12.877,55.758,55.758,0,0,1,10.07,18.678,86.959,86.959,0,0,1,3.97,22.5H1107.47Zm124.24,32.262a54.728,54.728,0,0,0,4.81,22.357,47.059,47.059,0,0,0,12.45,16.273A52.219,52.219,0,0,0,1267.51,207a78.372,78.372,0,0,0,23.06,3.254,109.277,109.277,0,0,0,19.67-1.839,57.678,57.678,0,0,0,18.25-6.509,41.563,41.563,0,0,0,13.59-12.311q5.37-7.641,5.37-19.527,0-11.314-3.96-18.678a33.375,33.375,0,0,0-10.89-12.027,57.24,57.24,0,0,0-16.42-7.358q-9.48-2.686-20.23-4.67-8.775-1.975-17.41-3.962a76.92,76.92,0,0,1-15.56-5.235,30.293,30.293,0,0,1-11.18-8.632q-4.245-5.371-4.24-14.15a21.872,21.872,0,0,1,3.82-13.018,30.115,30.115,0,0,1,9.76-8.773,42.956,42.956,0,0,1,13.44-4.811,80.107,80.107,0,0,1,14.86-1.415,65.384,65.384,0,0,1,16.98,2.123,39.466,39.466,0,0,1,13.73,6.509,29.661,29.661,0,0,1,9.05,11.462,40.393,40.393,0,0,1,3.26,16.98h10.75q0-12.449-4.1-21.225a39.132,39.132,0,0,0-11.32-14.433,45.876,45.876,0,0,0-17.13-8.207A84.968,84.968,0,0,0,1289.44,58a96.569,96.569,0,0,0-18.68,1.84,55.985,55.985,0,0,0-16.84,6.084,35.824,35.824,0,0,0-12.31,11.462q-4.815,7.217-4.81,17.971,0,15,7.36,22.782a48.842,48.842,0,0,0,18.54,12.027,124.563,124.563,0,0,0,24.05,6.368,188.5,188.5,0,0,1,24.06,5.518,51.546,51.546,0,0,1,18.53,9.622q7.365,6.23,7.36,18.395,0,9.339-4.53,15.424a31.135,31.135,0,0,1-11.46,9.48,52.455,52.455,0,0,1-15,4.67,97.236,97.236,0,0,1-15.14,1.273,57.752,57.752,0,0,1-18.39-2.83,42.786,42.786,0,0,1-25.19-21.649,44.725,44.725,0,0,1-4.53-17.971h-10.75Z"/>
  <path id="Main" fill="url(#roundgrad)" d="M133.82,2.813A130.82,130.82,0,1,1,3,133.632,130.82,130.82,0,0,1,133.82,2.813Z"/>
  <g id="ZN">
    <g id="Box_Top" data-name="Box Top">
      <path id="Box_Left" data-name="Box Left" class="cls-3" d="M114.734,61.318l19.173-11.1,19.108,11.1V83.525l-19.108,11.1-19.173-11.1V61.318Z"/>
    </g>
    <path id="Line" class="cls-4" d="M133.931,120.4V84.352"/>
    <g id="Box_Main" data-name="Box Main">
      <path id="Box_Left-2" data-name="Box Left" class="cls-3" d="M102.367,118.758l31.424-18.2,31.319,18.2v36.4l-31.319,18.2-31.424-18.2v-36.4Z"/>
    </g>
    <path id="Line-2" data-name="Line" class="cls-4" d="M82.31,174.188l37.33-25.308"/>
    <path id="Line-3" data-name="Line" class="cls-4" d="M185.014,174.759l-36.9-25.926"/>
    <g id="Box_Left-3" data-name="Box Left">
      <path id="Box_Left-4" data-name="Box Left" class="cls-3" d="M54.23,162.762l24.173-14,24.092,14v28l-24.092,14-24.173-14v-28Z"/>
    </g>
    <g id="Box_Right" data-name="Box Right">
      <path id="Box_Left-5" data-name="Box Left" class="cls-3" d="M165.307,162.762l24.173-14,24.091,14v28l-24.091,14-24.173-14v-28Z"/>
    </g>
    <path id="Line-4" data-name="Line" class="cls-4" d="M90.925,182.058h85.827"/>
  </g>
</svg>
