<svg xmlns="http://www.w3.org/2000/svg" width="59" height="58" fill="none"><g opacity="0.2"><path fill="#4b465c" d="m23.216 41.257-2.741 5.438a1.77 1.77 0 0 1-2.04.951c-5.55-1.36-10.353-3.715-13.842-6.751a1.84 1.84 0 0 1-.544-1.904l7.68-25.646a1.74 1.74 0 0 1 1.066-1.156 40 40 0 0 1 6.706-2.084 1.836 1.836 0 0 1 2.13 1.2l1.79 5.415a43 43 0 0 1 11.826 0l1.79-5.414a1.836 1.836 0 0 1 2.13-1.201 40 40 0 0 1 6.706 2.084 1.74 1.74 0 0 1 1.065 1.156l7.68 25.647a1.84 1.84 0 0 1-.544 1.903c-3.489 3.035-8.292 5.392-13.843 6.751a1.77 1.77 0 0 1-2.039-.951l-2.741-5.438a44 44 0 0 1-6.117.43 44 44 0 0 1-6.118-.43"/><path fill="#fff" fill-opacity="0.2" d="m23.216 41.257-2.741 5.438a1.77 1.77 0 0 1-2.04.951c-5.55-1.36-10.353-3.715-13.842-6.751a1.84 1.84 0 0 1-.544-1.904l7.68-25.646a1.74 1.74 0 0 1 1.066-1.156 40 40 0 0 1 6.706-2.084 1.836 1.836 0 0 1 2.13 1.2l1.79 5.415a43 43 0 0 1 11.826 0l1.79-5.414a1.836 1.836 0 0 1 2.13-1.201 40 40 0 0 1 6.706 2.084 1.74 1.74 0 0 1 1.065 1.156l7.68 25.647a1.84 1.84 0 0 1-.544 1.903c-3.489 3.035-8.292 5.392-13.843 6.751a1.77 1.77 0 0 1-2.039-.951l-2.741-5.438a44 44 0 0 1-6.117.43 44 44 0 0 1-6.118-.43"/></g><path fill="#4b465c" fill-rule="evenodd" d="M24.802 32.625a2.719 2.719 0 1 1-5.437 0 2.719 2.719 0 0 1 5.437 0m14.5 0a2.719 2.719 0 1 1-5.437 0 2.719 2.719 0 0 1 5.437 0" clip-rule="evenodd"/><path fill="#fff" fill-opacity="0.2" fill-rule="evenodd" d="M24.802 32.625a2.719 2.719 0 1 1-5.437 0 2.719 2.719 0 0 1 5.437 0m14.5 0a2.719 2.719 0 1 1-5.437 0 2.719 2.719 0 0 1 5.437 0" clip-rule="evenodd"/><path stroke="#4b465c" stroke-linecap="round" stroke-linejoin="round" stroke-width="2" d="M17.19 18.125a39.6 39.6 0 0 1 12.144-1.812c4.117-.03 8.214.58 12.143 1.812m0 21.75a39.6 39.6 0 0 1-12.143 1.813 39.6 39.6 0 0 1-12.144-1.813m18.26 1.382 2.742 5.438a1.77 1.77 0 0 0 2.04.951c5.55-1.36 10.353-3.715 13.842-6.751a1.84 1.84 0 0 0 .544-1.904l-7.68-25.646a1.74 1.74 0 0 0-1.065-1.156 40 40 0 0 0-6.707-2.084 1.836 1.836 0 0 0-2.13 1.2l-1.79 5.415m-12.03 24.537-2.741 5.438a1.77 1.77 0 0 1-2.04.951c-5.55-1.36-10.353-3.715-13.842-6.751a1.84 1.84 0 0 1-.544-1.904l7.68-25.646a1.74 1.74 0 0 1 1.066-1.156 40 40 0 0 1 6.706-2.084 1.836 1.836 0 0 1 2.13 1.2l1.79 5.415"/><path stroke="#fff" stroke-linecap="round" stroke-linejoin="round" stroke-opacity="0.2" stroke-width="2" d="M17.19 18.125a39.6 39.6 0 0 1 12.144-1.812c4.117-.03 8.214.58 12.143 1.812m0 21.75a39.6 39.6 0 0 1-12.143 1.813 39.6 39.6 0 0 1-12.144-1.813m18.26 1.382 2.742 5.438a1.77 1.77 0 0 0 2.04.951c5.55-1.36 10.353-3.715 13.842-6.751a1.84 1.84 0 0 0 .544-1.904l-7.68-25.646a1.74 1.74 0 0 0-1.065-1.156 40 40 0 0 0-6.707-2.084 1.836 1.836 0 0 0-2.13 1.2l-1.79 5.415m-12.03 24.537-2.741 5.438a1.77 1.77 0 0 1-2.04.951c-5.55-1.36-10.353-3.715-13.842-6.751a1.84 1.84 0 0 1-.544-1.904l7.68-25.646a1.74 1.74 0 0 1 1.066-1.156 40 40 0 0 1 6.706-2.084 1.836 1.836 0 0 1 2.13 1.2l1.79 5.415"/></svg>