<svg xmlns="http://www.w3.org/2000/svg" width="58" height="58" fill="none"><path fill="#4b465c" fill-rule="evenodd" d="M32.269 8.567c-.481.487-.9 1.281-1.24 2.303-.334 1.007-.564 2.145-.719 3.233a33 33 0 0 0-.28 2.991l.158-.008c.74-.038 1.75-.116 2.834-.271 1.088-.155 2.226-.385 3.233-.719 1.022-.34 1.816-.759 2.303-1.24a4.447 4.447 0 0 0-6.29-6.289m6.994 6.998.707.707a6.447 6.447 0 0 0-9.117-9.117l-.003.003c-.798.805-1.339 1.938-1.719 3.082q-.07.205-.131.415-.063-.21-.131-.415c-.38-1.144-.92-2.277-1.72-3.082l-.002-.003a6.447 6.447 0 1 0-9.117 9.117l.707-.707-.704.71c.326.324.706.605 1.119.85H9.062a2.813 2.813 0 0 0-2.812 2.813v7.25A2.813 2.813 0 0 0 9.063 30h.812v15.313a2.81 2.81 0 0 0 2.813 2.812h32.625a2.81 2.81 0 0 0 2.812-2.812V30h.813a2.813 2.813 0 0 0 2.812-2.812v-7.25a2.813 2.813 0 0 0-2.812-2.813h-10.09a5.8 5.8 0 0 0 1.12-.85zm-30.2 3.56a.813.813 0 0 0-.813.813v7.25c0 .448.364.812.813.812H28v-8.875zm20.937 0V28h18.938a.813.813 0 0 0 .812-.812v-7.25a.813.813 0 0 0-.812-.813zM28 30H11.875v15.313a.81.81 0 0 0 .813.812H28zm2 16.125V30h16.125v15.313a.81.81 0 0 1-.812.812zm-8.255-30.029c-1.022-.34-1.817-.759-2.303-1.24a4.447 4.447 0 0 1 6.289-6.289c.481.487.9 1.281 1.24 2.303.334 1.007.564 2.145.719 3.233a33 33 0 0 1 .28 2.991l-.158-.008c-.74-.038-1.75-.116-2.834-.271-1.088-.155-2.226-.385-3.233-.719" clip-rule="evenodd"/><path fill="#fff" fill-opacity="0.2" fill-rule="evenodd" d="M32.269 8.567c-.481.487-.9 1.281-1.24 2.303-.334 1.007-.564 2.145-.719 3.233a33 33 0 0 0-.28 2.991l.158-.008c.74-.038 1.75-.116 2.834-.271 1.088-.155 2.226-.385 3.233-.719 1.022-.34 1.816-.759 2.303-1.24a4.447 4.447 0 0 0-6.29-6.289m6.994 6.998.707.707a6.447 6.447 0 0 0-9.117-9.117l-.003.003c-.798.805-1.339 1.938-1.719 3.082q-.07.205-.131.415-.063-.21-.131-.415c-.38-1.144-.92-2.277-1.72-3.082l-.002-.003a6.447 6.447 0 1 0-9.117 9.117l.707-.707-.704.71c.326.324.706.605 1.119.85H9.062a2.813 2.813 0 0 0-2.812 2.813v7.25A2.813 2.813 0 0 0 9.063 30h.812v15.313a2.81 2.81 0 0 0 2.813 2.812h32.625a2.81 2.81 0 0 0 2.812-2.812V30h.813a2.813 2.813 0 0 0 2.812-2.812v-7.25a2.813 2.813 0 0 0-2.812-2.813h-10.09a5.8 5.8 0 0 0 1.12-.85zm-30.2 3.56a.813.813 0 0 0-.813.813v7.25c0 .448.364.812.813.812H28v-8.875zm20.937 0V28h18.938a.813.813 0 0 0 .812-.812v-7.25a.813.813 0 0 0-.812-.813zM28 30H11.875v15.313a.81.81 0 0 0 .813.812H28zm2 16.125V30h16.125v15.313a.81.81 0 0 1-.812.812zm-8.255-30.029c-1.022-.34-1.817-.759-2.303-1.24a4.447 4.447 0 0 1 6.289-6.289c.481.487.9 1.281 1.24 2.303.334 1.007.564 2.145.719 3.233a33 33 0 0 1 .28 2.991l-.158-.008c-.74-.038-1.75-.116-2.834-.271-1.088-.155-2.226-.385-3.233-.719" clip-rule="evenodd"/><g opacity="0.2"><path fill="#4b465c" d="M47.125 29v16.313a1.81 1.81 0 0 1-1.812 1.812H12.687a1.81 1.81 0 0 1-1.812-1.812V29z"/><path fill="#fff" fill-opacity="0.2" d="M47.125 29v16.313a1.81 1.81 0 0 1-1.812 1.812H12.687a1.81 1.81 0 0 1-1.812-1.812V29z"/></g></svg>