<svg xmlns="http://www.w3.org/2000/svg" width="1em" height="1em" fill="none" viewBox="0 0 59 58"><g opacity="0.2"><path fill="#4b465c" d="M50.97 12.688H7.697a1.926 1.926 0 0 0-1.926 1.925v28.774c0 1.063.862 1.925 1.926 1.925H50.97a1.926 1.926 0 0 0 1.926-1.925V14.613a1.926 1.926 0 0 0-1.926-1.925"/><path fill="#fff" fill-opacity="0.2" d="M50.97 12.688H7.697a1.926 1.926 0 0 0-1.926 1.925v28.774c0 1.063.862 1.925 1.926 1.925H50.97a1.926 1.926 0 0 0 1.926-1.925V14.613a1.926 1.926 0 0 0-1.926-1.925"/></g><path fill="#4b465c" fill-rule="evenodd" d="M7.021 14.613c0-.373.303-.675.676-.675H50.97c.373 0 .676.302.676.675v28.774a.676.676 0 0 1-.676.675H7.697a.676.676 0 0 1-.676-.675zm.676-3.175a3.176 3.176 0 0 0-3.176 3.175v28.774a3.176 3.176 0 0 0 3.176 3.175H50.97a3.176 3.176 0 0 0 3.176-3.175V14.613a3.176 3.176 0 0 0-3.176-3.175zm5.324 9.312a1 1 0 1 0 0 2h32.625a1 1 0 1 0 0-2zm0 7.25a1 1 0 1 0 0 2h32.625a1 1 0 1 0 0-2zm-1 8.25a1 1 0 0 1 1-1h1.813a1 1 0 1 1 0 2H13.02a1 1 0 0 1-1-1m10.063-1a1 1 0 1 0 0 2h14.5a1 1 0 1 0 0-2zm20.75 1a1 1 0 0 1 1-1h1.812a1 1 0 1 1 0 2h-1.812a1 1 0 0 1-1-1" clip-rule="evenodd"/><path fill="#fff" fill-opacity="0.2" fill-rule="evenodd" d="M7.021 14.613c0-.373.303-.675.676-.675H50.97c.373 0 .676.302.676.675v28.774a.676.676 0 0 1-.676.675H7.697a.676.676 0 0 1-.676-.675zm.676-3.175a3.176 3.176 0 0 0-3.176 3.175v28.774a3.176 3.176 0 0 0 3.176 3.175H50.97a3.176 3.176 0 0 0 3.176-3.175V14.613a3.176 3.176 0 0 0-3.176-3.175zm5.324 9.312a1 1 0 1 0 0 2h32.625a1 1 0 1 0 0-2zm0 7.25a1 1 0 1 0 0 2h32.625a1 1 0 1 0 0-2zm-1 8.25a1 1 0 0 1 1-1h1.813a1 1 0 1 1 0 2H13.02a1 1 0 0 1-1-1m10.063-1a1 1 0 1 0 0 2h14.5a1 1 0 1 0 0-2zm20.75 1a1 1 0 0 1 1-1h1.812a1 1 0 1 1 0 2h-1.812a1 1 0 0 1-1-1" clip-rule="evenodd"/></svg>