<svg xmlns="http://www.w3.org/2000/svg" width="1em" height="1em" fill="#4b465c" viewBox="0 0 59 58"><g opacity="0.2"><path d="M9.73 39.875V16.313a3.625 3.625 0 0 1 3.624-3.625H45.98a3.625 3.625 0 0 1 3.625 3.624v23.563z"/><path fill="#fff" fill-opacity="0.2" d="M9.73 39.875V16.313a3.625 3.625 0 0 1 3.624-3.625H45.98a3.625 3.625 0 0 1 3.625 3.624v23.563z"/></g><path d="M8.73 39.875a1 1 0 1 0 2 0zm4.624-27.187v-1zm32.625 0v-1zm2.625 27.187a1 1 0 0 0 2 0zm-42.5 0v-1a1 1 0 0 0-1 1zm47.125 0h1a1 1 0 0 0-1-1zM6.104 43.5h-1zm27.188-22.562a1 1 0 1 0 0-2zm-7.25-2a1 1 0 0 0 0 2zM10.729 39.875V16.313h-2v23.562zm0-23.562c0-.697.277-1.364.77-1.857l-1.415-1.414a4.63 4.63 0 0 0-1.355 3.27zm.77-1.857a2.63 2.63 0 0 1 1.855-.768v-2a4.63 4.63 0 0 0-3.27 1.354zm1.855-.768H45.98v-2H13.354zm32.625 0c.696 0 1.364.276 1.856.768l1.415-1.414a4.63 4.63 0 0 0-3.27-1.354zm1.856.768c.493.493.77 1.16.77 1.857h2a4.63 4.63 0 0 0-1.355-3.27zm.77 1.857v23.562h2V16.313zm-42.5 24.562h47.124v-2H6.104zm46.124-1V43.5h2v-3.625zm0 3.625c0 .696-.276 1.364-.769 1.856l1.415 1.414a4.63 4.63 0 0 0 1.354-3.27zm-.769 1.856a2.63 2.63 0 0 1-1.856.769v2a4.63 4.63 0 0 0 3.27-1.355zm-1.856.769H9.73v2h39.875zm-39.875 0a2.63 2.63 0 0 1-1.856-.769L6.46 46.77a4.63 4.63 0 0 0 3.27 1.355zm-1.856-.769a2.63 2.63 0 0 1-.769-1.856h-2c0 1.227.488 2.403 1.355 3.27zM7.104 43.5v-3.625h-2V43.5zm26.188-24.562h-7.25v2h7.25z"/><path fill="#fff" fill-opacity="0.2" d="M8.73 39.875a1 1 0 1 0 2 0zm4.624-27.187v-1zm32.625 0v-1zm2.625 27.187a1 1 0 0 0 2 0zm-42.5 0v-1a1 1 0 0 0-1 1zm47.125 0h1a1 1 0 0 0-1-1zM6.104 43.5h-1zm27.188-22.562a1 1 0 1 0 0-2zm-7.25-2a1 1 0 0 0 0 2zM10.729 39.875V16.313h-2v23.562zm0-23.562c0-.697.277-1.364.77-1.857l-1.415-1.414a4.63 4.63 0 0 0-1.355 3.27zm.77-1.857a2.63 2.63 0 0 1 1.855-.768v-2a4.63 4.63 0 0 0-3.27 1.354zm1.855-.768H45.98v-2H13.354zm32.625 0c.696 0 1.364.276 1.856.768l1.415-1.414a4.63 4.63 0 0 0-3.27-1.354zm1.856.768c.493.493.77 1.16.77 1.857h2a4.63 4.63 0 0 0-1.355-3.27zm.77 1.857v23.562h2V16.313zm-42.5 24.562h47.124v-2H6.104zm46.124-1V43.5h2v-3.625zm0 3.625c0 .696-.276 1.364-.769 1.856l1.415 1.414a4.63 4.63 0 0 0 1.354-3.27zm-.769 1.856a2.63 2.63 0 0 1-1.856.769v2a4.63 4.63 0 0 0 3.27-1.355zm-1.856.769H9.73v2h39.875zm-39.875 0a2.63 2.63 0 0 1-1.856-.769L6.46 46.77a4.63 4.63 0 0 0 3.27 1.355zm-1.856-.769a2.63 2.63 0 0 1-.769-1.856h-2c0 1.227.488 2.403 1.355 3.27zM7.104 43.5v-3.625h-2V43.5zm26.188-24.562h-7.25v2h7.25z"/></svg>