<svg xmlns="http://www.w3.org/2000/svg" width="1em" height="1em" fill="none" viewBox="0 0 58 58"><g opacity="0.2"><path fill="#4b465c" d="M17.83 37.836a18.01 18.01 0 0 1-6.955-14.16C10.83 13.843 18.737 5.664 28.57 5.437a18.125 18.125 0 0 1 11.622 32.376 5.48 5.48 0 0 0-2.13 4.328V43.5a1.81 1.81 0 0 1-1.812 1.813h-14.5a1.81 1.81 0 0 1-1.813-1.813v-1.36a5.53 5.53 0 0 0-2.107-4.304"/><path fill="#fff" fill-opacity="0.2" d="M17.83 37.836a18.01 18.01 0 0 1-6.955-14.16C10.83 13.843 18.737 5.664 28.57 5.437a18.125 18.125 0 0 1 11.622 32.376 5.48 5.48 0 0 0-2.13 4.328V43.5a1.81 1.81 0 0 1-1.812 1.813h-14.5a1.81 1.81 0 0 1-1.813-1.813v-1.36a5.53 5.53 0 0 0-2.107-4.304"/></g><path fill="#4b465c" fill-rule="evenodd" d="M38.686 9.435a17.13 17.13 0 0 0-10.093-2.998q-.362.008-.72.032l.673-2.031A19.125 19.125 0 0 1 40.81 38.6l-.006.005a4.48 4.48 0 0 0-1.742 3.537V43.5a2.813 2.813 0 0 1-2.812 2.813h-14.5a2.81 2.81 0 0 1-2.812-2.813v-1.356a4.53 4.53 0 0 0-1.724-3.52l.673-2.03q.273.231.557.453l-.614.789.62-.786a6.53 6.53 0 0 1 2.487 5.084V43.5a.813.813 0 0 0 .813.813h14.5a.813.813 0 0 0 .813-.813v-1.361a6.48 6.48 0 0 1 2.514-5.115 17.125 17.125 0 0 0-.891-27.589m-20.8 27.159 9.987-30.125.673-2.031c-10.38.24-18.718 8.868-18.671 19.242a19.01 19.01 0 0 0 7.339 14.943zm0 0a17.01 17.01 0 0 1-6.011-12.922c-.042-9.05 7.05-16.618 15.997-17.203zm1.052 15.968a1 1 0 0 1 1-1h18.125a1 1 0 1 1 0 2H19.938a1 1 0 0 1-1-1m12.064-40.68a1 1 0 0 0-.334 1.973 9.85 9.85 0 0 1 8.063 8.042 1 1 0 1 0 1.971-.34 11.85 11.85 0 0 0-9.7-9.674" clip-rule="evenodd"/><path fill="#fff" fill-opacity="0.2" fill-rule="evenodd" d="M38.686 9.435a17.13 17.13 0 0 0-10.093-2.998q-.362.008-.72.032l.673-2.031A19.125 19.125 0 0 1 40.81 38.6l-.006.005a4.48 4.48 0 0 0-1.742 3.537V43.5a2.813 2.813 0 0 1-2.812 2.813h-14.5a2.81 2.81 0 0 1-2.812-2.813v-1.356a4.53 4.53 0 0 0-1.724-3.52l.673-2.03q.273.231.557.453l-.614.789.62-.786a6.53 6.53 0 0 1 2.487 5.084V43.5a.813.813 0 0 0 .813.813h14.5a.813.813 0 0 0 .813-.813v-1.361a6.48 6.48 0 0 1 2.514-5.115 17.125 17.125 0 0 0-.891-27.589m-20.8 27.159 9.987-30.125.673-2.031c-10.38.24-18.718 8.868-18.671 19.242a19.01 19.01 0 0 0 7.339 14.943zm0 0a17.01 17.01 0 0 1-6.011-12.922c-.042-9.05 7.05-16.618 15.997-17.203zm1.052 15.968a1 1 0 0 1 1-1h18.125a1 1 0 1 1 0 2H19.938a1 1 0 0 1-1-1m12.064-40.68a1 1 0 0 0-.334 1.973 9.85 9.85 0 0 1 8.063 8.042 1 1 0 1 0 1.971-.34 11.85 11.85 0 0 0-9.7-9.674" clip-rule="evenodd"/></svg>