<svg xmlns="http://www.w3.org/2000/svg" width="1em" height="1em" fill="none" viewBox="0 0 59 58"><g fill-rule="evenodd" clip-rule="evenodd" opacity="0.2"><path fill="#4b465c" d="m48.902 33.622-7.114-8.542c.272 5.234-1.02 11.329-5.007 18.284l6.797 5.438a1.812 1.812 0 0 0 2.9-1.043l2.786-12.596a1.72 1.72 0 0 0-.362-1.541m-38.606.136 7.114-8.519c-.272 5.234 1.02 11.328 5.007 18.261l-6.797 5.438a1.812 1.812 0 0 1-2.9-1.02l-2.787-12.62a1.72 1.72 0 0 1 .363-1.54"/><path fill="#fff" fill-opacity="0.2" d="m48.902 33.622-7.114-8.542c.272 5.234-1.02 11.329-5.007 18.284l6.797 5.438a1.812 1.812 0 0 0 2.9-1.043l2.786-12.596a1.72 1.72 0 0 0-.362-1.541m-38.606.136 7.114-8.519c-.272 5.234 1.02 11.328 5.007 18.261l-6.797 5.438a1.812 1.812 0 0 1-2.9-1.02l-2.787-12.62a1.72 1.72 0 0 1 .363-1.54"/></g><path fill="#4b465c" fill-rule="evenodd" d="M27.902 3.711a2.77 2.77 0 0 1 3.533.003c2.197 1.788 6.951 6.225 9.576 13.047a27.2 27.2 0 0 1 1.762 7.918l7.03 8.434a2.72 2.72 0 0 1 .571 2.414L47.59 48.134v.003a2.813 2.813 0 0 1-4.5 1.582h-.001L36.566 44.5H22.767l-6.523 5.218a2.814 2.814 0 0 1-4.5-1.581v-.003L8.958 35.527a2.72 2.72 0 0 1 .573-2.415l6.895-8.257a26.9 26.9 0 0 1 1.787-8.106c2.65-6.824 7.466-11.26 9.688-13.038m12.902 21.527a1 1 0 0 1-.014-.245 25.2 25.2 0 0 0-1.646-7.514c-2.449-6.365-6.91-10.537-8.976-12.217l-.01-.008a.77.77 0 0 0-.983 0l-.017.013c-2.086 1.669-6.608 5.84-9.08 12.206a24.9 24.9 0 0 0-1.675 7.88c-.229 4.9.94 10.631 4.595 17.147H36.33c3.609-6.568 4.736-12.337 4.475-17.261m7.466 9.16-5.458-6.549c-.203 4.586-1.537 9.735-4.611 15.397l6.137 4.91a.814.814 0 0 0 1.3-.456l2.786-12.617.003-.015.004-.014a.72.72 0 0 0-.152-.645zm-31.856-6.406-5.35 6.407-.01.01a.72.72 0 0 0-.144.674L13.697 47.7v.002a.813.813 0 0 0 1.3.455l6.131-4.905c-3.104-5.604-4.475-10.707-4.713-15.26m8.628 22.758a1 1 0 0 1 1-1h7.25a1 1 0 1 1 0 2h-7.25a1 1 0 0 1-1-1m7.343-29a2.719 2.719 0 1 1-5.437 0 2.719 2.719 0 0 1 5.438 0" clip-rule="evenodd"/><path fill="#fff" fill-opacity="0.2" fill-rule="evenodd" d="M27.902 3.711a2.77 2.77 0 0 1 3.533.003c2.197 1.788 6.951 6.225 9.576 13.047a27.2 27.2 0 0 1 1.762 7.918l7.03 8.434a2.72 2.72 0 0 1 .571 2.414L47.59 48.134v.003a2.813 2.813 0 0 1-4.5 1.582h-.001L36.566 44.5H22.767l-6.523 5.218a2.814 2.814 0 0 1-4.5-1.581v-.003L8.958 35.527a2.72 2.72 0 0 1 .573-2.415l6.895-8.257a26.9 26.9 0 0 1 1.787-8.106c2.65-6.824 7.466-11.26 9.688-13.038m12.902 21.527a1 1 0 0 1-.014-.245 25.2 25.2 0 0 0-1.646-7.514c-2.449-6.365-6.91-10.537-8.976-12.217l-.01-.008a.77.77 0 0 0-.983 0l-.017.013c-2.086 1.669-6.608 5.84-9.08 12.206a24.9 24.9 0 0 0-1.675 7.88c-.229 4.9.94 10.631 4.595 17.147H36.33c3.609-6.568 4.736-12.337 4.475-17.261m7.466 9.16-5.458-6.549c-.203 4.586-1.537 9.735-4.611 15.397l6.137 4.91a.814.814 0 0 0 1.3-.456l2.786-12.617.003-.015.004-.014a.72.72 0 0 0-.152-.645zm-31.856-6.406-5.35 6.407-.01.01a.72.72 0 0 0-.144.674L13.697 47.7v.002a.813.813 0 0 0 1.3.455l6.131-4.905c-3.104-5.604-4.475-10.707-4.713-15.26m8.628 22.758a1 1 0 0 1 1-1h7.25a1 1 0 1 1 0 2h-7.25a1 1 0 0 1-1-1m7.343-29a2.719 2.719 0 1 1-5.437 0 2.719 2.719 0 0 1 5.438 0" clip-rule="evenodd"/></svg>