<svg xmlns="http://www.w3.org/2000/svg" width="371" height="80" fill="none"><g clip-path="url(#a)"><path fill="#3e4654" d="M130.078 24.066h-20.301V36.1h19.722v9.572h-19.722v19.576H99.769V14.494h30.309zm6.889 41.184V14.493h9.353V65.25zm41.835-36.254h9.353V65.25h-9.353v-4.062q-3.408 5.076-10.804 5.076-5.947 0-9.826-3.988t-3.88-11.022v-22.26h9.353v21.098q-.001 3.627 1.957 5.548 1.958 1.924 5.222 1.923 3.625 0 5.8-2.248 2.174-2.245 2.174-6.743V28.995zm51.337 36.254h-10.805l-7.866-10.989-7.866 10.988h-10.804l13.287-18.506-12.709-17.748h10.805l7.313 10.214 7.334-10.214h10.732l-12.689 17.723z"/><path fill="#1b63ef" d="M40 80c22.091 0 40-17.909 40-40S62.091 0 40 0 0 17.909 0 40s17.909 40 40 40"/><path fill="#fff" d="M61.882 38.64v13.993l-2.353 1.36-4.939 2.851h-.002l-4.823 2.786-.003.003-9.65-5.572-2.465-1.423V38.64l12.115-6.995h.003l9.649 5.569v.002zM44.821 62.485l-4.82 2.783-2.354-1.357-4.941-2.854-2.353-1.358 2.353-1.36 2.468-1.426 2.473 1.428zM30.353 42.852l2.353 1.358v8.426l-2.47 1.426h-.003l-4.819 2.783h-.002l-7.294-4.212v-8.425l2.463-1.422h.005l4.823-2.788h.003V40l4.939 2.852z"/><path fill="#fff" d="M61.882 27.367v5.567l-7.178-4.144-4.94-2.851h-.002l-4.94 2.851-7.175 4.144-4.941 2.852v2.72l-2.355-1.36-4.942-2.852-4.938 2.852-2.353 1.357V27.367l12.117-6.998 4.941-2.852 2.471-1.428L40 14.731l9.645 5.57 4.94 2.852v.002l4.942 2.852z"/><path fill="#8895a8" d="M254.565 14.78q6.783 0 11.258 4.476 4.476 4.476 4.476 11.186t-4.476 11.15q-4.475 4.438-11.258 4.438h-13.351V65.3h-3.826V14.78zm0 27.643q5.195 0 8.553-3.393 3.355-3.391 3.355-8.588c0-3.463-1.118-6.4-3.355-8.661q-3.356-3.392-8.553-3.393h-13.351v24.033h13.351zm24.466 22.878V12.616h3.609v52.685zm46.477-36.085h3.68v36.085h-3.68v-8.155q-2.31 4.184-6.35 6.567-4.043 2.381-9.167 2.38-7.723 0-13.208-5.449-5.484-5.448-5.484-13.388t5.484-13.388q5.485-5.45 13.208-5.45 5.123 0 9.167 2.382 4.04 2.383 6.35 6.567v-8.155zm-26.092 28.939q4.439 4.476 10.862 4.475 6.423 0 10.825-4.475 4.403-4.474 4.403-10.896 0-6.425-4.403-10.897-4.401-4.475-10.825-4.475t-10.862 4.475q-4.436 4.477-4.437 10.897c0 4.28 1.48 7.915 4.437 10.896m67.302-28.939h3.896l-15.588 39.405q-2.092 5.339-5.92 8.41-3.826 3.065-8.372 2.705v-3.393c2.311.19 4.391-.468 6.245-1.983q2.779-2.276 4.513-6.46l.779-1.98-16.589-36.704h3.897L354.12 61.22l12.595-32.003z"/></g><defs><clipPath id="a"><path fill="#fff" d="M0 0h370.614v80H0z"/></clipPath></defs></svg>