<svg xmlns="http://www.w3.org/2000/svg" width="512" height="512" viewBox="0 0 812 812">
<defs>
    <style>
      .cls-1 {
        fill: #fff;
      }

      .cls-4 {
        fill: #bb3c88;
        fill-rule: evenodd;
      }
    </style>
    <linearGradient id="zelidgrad" x2="0" y2="1">
    	<stop offset="0%" stop-color="#d83f87" />
    	<stop offset="100%" stop-color="#44318d" />
  	</linearGradient>
  	<linearGradient id="roundgrad" x2="0" y2="1">
    	<stop offset="0%" stop-color="#fff" />
    	<stop offset="100%" stop-color="#e5e5e5" />
  	</linearGradient>
  </defs>
  <circle id="Round" fill="url(#roundgrad)" cx="406" cy="406" r="406"/>
  <path id="Fingerprint_White" data-name="Fingerprint White" class="cls-1" d="M449.949,468.126V416.5a36.923,36.923,0,0,0-73.846,0v46.608a226.577,226.577,0,0,1-58.281,151.836L267,671.509a11.783,11.783,0,0,0,17.519,15.762L335.34,630.71a250.107,250.107,0,0,0,64.331-167.6V416.5a13.355,13.355,0,0,1,26.71,0v51.622a276.629,276.629,0,0,1-72.119,186.489L303.75,710.164a11.782,11.782,0,0,0,17.438,15.848L371.7,670.464A300.135,300.135,0,0,0,449.949,468.126ZM500.227,416.5a87.2,87.2,0,0,0-174.4,0v46.608A176.4,176.4,0,0,1,280.45,581.323l-42.839,46.922a11.783,11.783,0,0,0,17.519,15.763l42.839-46.923a199.921,199.921,0,0,0,51.425-133.973V416.5a63.634,63.634,0,0,1,127.267,0v51.622a326.782,326.782,0,0,1-85.195,220.3L348.848,735.3a11.782,11.782,0,0,0,17.437,15.849l42.62-46.87a350.293,350.293,0,0,0,91.322-236.148V416.5Zm50.278,0c0-75.785-61.672-137.439-137.479-137.439S275.547,340.719,275.547,416.5v46.608A126.223,126.223,0,0,1,243.078,547.7l-35.17,38.846a11.783,11.783,0,1,0,17.518,15.763L260.6,563.46a149.743,149.743,0,0,0,38.518-100.348V416.5a113.911,113.911,0,0,1,227.822,0v51.622a376.927,376.927,0,0,1-98.27,254.109l-20.795,22.972a11.783,11.783,0,0,0,17.439,15.849L446.1,738.085A400.444,400.444,0,0,0,550.5,468.126V416.5h0Zm-325.236,0a11.784,11.784,0,0,0,23.568,0A164.43,164.43,0,0,1,389.561,254.033a11.78,11.78,0,1,0-3.352-23.321A188,188,0,0,0,225.269,416.5Zm23.568,46.608a11.784,11.784,0,0,0-23.568,0,76.037,76.037,0,0,1-19.56,50.959l-29.5,32.777a11.783,11.783,0,0,0,17.519,15.761l29.5-32.776A99.569,99.569,0,0,0,248.837,463.112ZM577.653,568.274a11.794,11.794,0,0,0-14.384,8.415,427.642,427.642,0,0,1-16.089,49.1,11.784,11.784,0,0,0,21.912,8.679,451.622,451.622,0,0,0,16.978-51.813A11.783,11.783,0,0,0,577.653,568.274ZM538.431,276.916a11.782,11.782,0,1,0-15.758,17.52A164.408,164.408,0,0,1,577.214,416.5v51.622a431.373,431.373,0,0,1-4.018,58.681,11.783,11.783,0,0,0,23.346,3.214,454.91,454.91,0,0,0,4.24-61.9V416.5A188,188,0,0,0,538.431,276.916Zm-55.09-8.727a11.782,11.782,0,1,0,10.133-21.273,186.269,186.269,0,0,0-53.634-16.2,11.78,11.78,0,1,0-3.351,23.321A162.746,162.746,0,0,1,483.341,268.189Zm-70.315-89.652c-4.409,0-8.868.123-13.256,0.364a11.78,11.78,0,1,0,1.3,23.524c3.958-.218,7.981-0.328,11.958-0.328,118.256,0,214.466,96.181,214.466,214.406v51.621a11.784,11.784,0,0,0,23.568,0V416.5C651.061,285.29,544.278,178.537,413.026,178.537ZM284.182,242.455a11.744,11.744,0,0,0,6.717-2.109,213.239,213.239,0,0,1,64-30.25,11.781,11.781,0,1,0-6.4-22.678A236.78,236.78,0,0,0,277.445,221,11.783,11.783,0,0,0,284.182,242.455ZM198.559,463.112V416.5a213.447,213.447,0,0,1,58.456-146.966,11.782,11.782,0,0,0-17.148-16.163A236.915,236.915,0,0,0,174.991,416.5v46.608a25.861,25.861,0,0,1-6.653,17.333l-14.53,16.139a11.784,11.784,0,0,0,17.519,15.764l14.53-16.139A49.4,49.4,0,0,0,198.559,463.112ZM686.374,324.78a286.621,286.621,0,0,0-61.05-103.107,11.783,11.783,0,1,0-17.356,15.941,263.212,263.212,0,0,1,56.07,94.678A11.783,11.783,0,0,0,686.374,324.78ZM506.152,143.7a11.78,11.78,0,1,0-7.629,22.29,263.987,263.987,0,0,1,72.509,38.278,11.783,11.783,0,0,0,14.1-18.884A287.611,287.611,0,0,0,506.152,143.7ZM229.929,225.515a263.454,263.454,0,0,1,183.1-73.681,267.3,267.3,0,0,1,38.016,2.719,11.781,11.781,0,1,0,3.369-23.319,290.929,290.929,0,0,0-41.385-2.961,288.618,288.618,0,0,0-288.018,275.14,11.78,11.78,0,0,0,11.242,12.3c0.181,0.01.36,0.012,0.539,0.012a11.783,11.783,0,0,0,11.763-11.251A263.322,263.322,0,0,1,229.929,225.515Zm183.1-147.506a339.166,339.166,0,0,0-78.047,9.076,11.78,11.78,0,1,0,5.431,22.925,315.758,315.758,0,0,1,72.616-8.439c86.409,0,167.068,34.416,227.115,96.907a11.782,11.782,0,1,0,17-16.321A337.729,337.729,0,0,0,413.026,78.009Zm-264.7,146.714a11.787,11.787,0,0,0,16.543-2.012,317.06,317.06,0,0,1,127.859-97.279,11.782,11.782,0,1,0-9.028-21.765A340.688,340.688,0,0,0,146.316,208.183,11.781,11.781,0,0,0,148.329,224.723Z"/>
  <path id="Fingerprint_Purple" data-name="Fingerprint Purple" fill="url(#zelidgrad)" d="M449.949,468.126V416.5a36.923,36.923,0,0,0-73.846,0v46.608a226.577,226.577,0,0,1-58.281,151.836L267,671.509a11.783,11.783,0,0,0,17.519,15.762L335.34,630.71a250.107,250.107,0,0,0,64.331-167.6V416.5a13.355,13.355,0,0,1,26.71,0v51.622a276.629,276.629,0,0,1-72.119,186.489L303.75,710.164a11.782,11.782,0,0,0,17.438,15.848L371.7,670.464A300.135,300.135,0,0,0,449.949,468.126ZM500.227,416.5a87.2,87.2,0,0,0-174.4,0v46.608A176.4,176.4,0,0,1,280.45,581.323l-42.839,46.922a11.783,11.783,0,0,0,17.519,15.763l42.839-46.923a199.921,199.921,0,0,0,51.425-133.973V416.5a63.634,63.634,0,0,1,127.267,0v51.622a326.782,326.782,0,0,1-85.195,220.3L348.848,735.3a11.782,11.782,0,0,0,17.437,15.849l42.62-46.87a350.293,350.293,0,0,0,91.322-236.148V416.5Zm50.278,0c0-75.785-61.672-137.439-137.479-137.439S275.547,340.719,275.547,416.5v46.608A126.223,126.223,0,0,1,243.078,547.7l-35.17,38.846a11.783,11.783,0,1,0,17.518,15.763L260.6,563.46a149.743,149.743,0,0,0,38.518-100.348V416.5a113.911,113.911,0,0,1,227.822,0v51.622a376.927,376.927,0,0,1-98.27,254.109l-20.795,22.972a11.783,11.783,0,0,0,17.439,15.849L446.1,738.085A400.444,400.444,0,0,0,550.5,468.126V416.5h0ZM248.837,463.112a11.784,11.784,0,0,0-23.568,0,76.037,76.037,0,0,1-19.56,50.959l-29.5,32.777a11.783,11.783,0,0,0,17.519,15.761l29.5-32.776A99.569,99.569,0,0,0,248.837,463.112ZM577.653,568.274a11.794,11.794,0,0,0-14.384,8.415,427.642,427.642,0,0,1-16.089,49.1,11.784,11.784,0,0,0,21.912,8.679,451.622,451.622,0,0,0,16.978-51.813A11.783,11.783,0,0,0,577.653,568.274ZM538.431,276.916a11.782,11.782,0,1,0-15.758,17.52A164.408,164.408,0,0,1,577.214,416.5v51.622a431.373,431.373,0,0,1-4.018,58.681,11.783,11.783,0,0,0,23.346,3.214,454.91,454.91,0,0,0,4.24-61.9V416.5A188,188,0,0,0,538.431,276.916Zm-339.872,186.2V416.5a213.447,213.447,0,0,1,58.456-146.966,11.782,11.782,0,0,0-17.148-16.163A236.915,236.915,0,0,0,174.991,416.5v46.608a25.861,25.861,0,0,1-6.653,17.333l-14.53,16.139a11.784,11.784,0,0,0,17.519,15.764l14.53-16.139A49.4,49.4,0,0,0,198.559,463.112ZM686.374,324.78a286.621,286.621,0,0,0-61.05-103.107,11.783,11.783,0,1,0-17.356,15.941,263.212,263.212,0,0,1,56.07,94.678A11.783,11.783,0,0,0,686.374,324.78ZM506.152,143.7a11.78,11.78,0,1,0-7.629,22.29,263.987,263.987,0,0,1,72.509,38.278,11.783,11.783,0,0,0,14.1-18.884A287.611,287.611,0,0,0,506.152,143.7ZM229.929,225.515a263.454,263.454,0,0,1,183.1-73.681,267.3,267.3,0,0,1,38.016,2.719,11.781,11.781,0,1,0,3.369-23.319,290.929,290.929,0,0,0-41.385-2.961,288.618,288.618,0,0,0-288.018,275.14,11.78,11.78,0,0,0,11.242,12.3c0.181,0.01.36,0.012,0.539,0.012a11.783,11.783,0,0,0,11.763-11.251A263.322,263.322,0,0,1,229.929,225.515Zm183.1-147.506a339.166,339.166,0,0,0-78.047,9.076,11.78,11.78,0,1,0,5.431,22.925,315.758,315.758,0,0,1,72.616-8.439c86.409,0,167.068,34.416,227.115,96.907a11.782,11.782,0,1,0,17-16.321A337.729,337.729,0,0,0,413.026,78.009Zm-264.7,146.714a11.787,11.787,0,0,0,16.543-2.012,317.06,317.06,0,0,1,127.859-97.279,11.782,11.782,0,1,0-9.028-21.765A340.688,340.688,0,0,0,146.316,208.183,11.781,11.781,0,0,0,148.329,224.723Zm97.615,198.523a11.745,11.745,0,0,0,2.364-6.631c0.937-23.86,6.791-47.175,15.423-69.3a11.781,11.781,0,1,0-21.952-8.562c-9.588,24.574-15.977,50.462-17.018,76.943A11.783,11.783,0,0,0,245.944,423.246Zm404.95,40.535V417.1a238.02,238.02,0,0,0-64.6-163.377,11.689,11.689,0,0,0-16.587-.491,11.846,11.846,0,0,0-.488,16.678A214.443,214.443,0,0,1,627.427,417.1v46.679C627.3,476.918,633.185,479.684,639,480,648.638,479.9,650.894,472,650.894,463.781Z"/>
  <path id="zelID" data-name="zelID" class="cls-4" d="M292.034,214.26h31.92l-34.32,41.64v9.6h54.6V254.7h-37.32l35.52-41.64v-9.6h-50.4v10.8Zm68.64,14.76a18.177,18.177,0,0,1,1.38-6.48,17.217,17.217,0,0,1,3.36-5.22,14.932,14.932,0,0,1,5.04-3.48,16.435,16.435,0,0,1,6.54-1.26,14.161,14.161,0,0,1,6.3,1.38,15.5,15.5,0,0,1,4.8,3.6,16.687,16.687,0,0,1,3.12,5.22,22.171,22.171,0,0,1,1.38,6.24h-31.92Zm45.6,9a35.579,35.579,0,0,0-.9-13.5,32.839,32.839,0,0,0-5.58-11.58,28.863,28.863,0,0,0-9.66-8.1,27.814,27.814,0,0,0-13.14-3.06,28.148,28.148,0,0,0-21.9,9.78,32.047,32.047,0,0,0-6,10.44,37.322,37.322,0,0,0-2.1,12.54,41.919,41.919,0,0,0,1.98,13.2,28.493,28.493,0,0,0,5.88,10.32,26.744,26.744,0,0,0,9.54,6.72,32.86,32.86,0,0,0,12.96,2.4,33.612,33.612,0,0,0,9.66-1.38,27.463,27.463,0,0,0,8.34-4.08,25.723,25.723,0,0,0,10.08-15.66h-12.96a15.249,15.249,0,0,1-5.46,7.74q-3.663,2.581-9.66,2.58a17.008,17.008,0,0,1-7.44-1.5,14.71,14.71,0,0,1-5.16-4.02,17.073,17.073,0,0,1-3.06-5.88,23.789,23.789,0,0,1-1.02-6.96h45.6Zm6.6,27.48h13.68V179.82h-13.68V265.5Zm24.719,0h5.28V179.82h-5.28V265.5Zm16.2,0h27.84a44,44,0,0,0,17.82-3.3,34.117,34.117,0,0,0,12.42-9.06,36.884,36.884,0,0,0,7.26-13.62,59.251,59.251,0,0,0,2.34-16.98,67.121,67.121,0,0,0-1.86-15.84,36.591,36.591,0,0,0-6.42-13.68,32.292,32.292,0,0,0-12.18-9.6q-7.621-3.6-19.14-3.6h-28.08V265.5Zm5.28-4.56V184.38h21.96a66.483,66.483,0,0,1,7.02.42,36.607,36.607,0,0,1,7.8,1.74,31.941,31.941,0,0,1,7.56,3.78,23.753,23.753,0,0,1,6.48,6.72,36.994,36.994,0,0,1,4.56,10.5,56.455,56.455,0,0,1,1.74,15q0,11.16-3.06,18.54a31.656,31.656,0,0,1-7.98,11.76,29.285,29.285,0,0,1-10.98,6.24,40.9,40.9,0,0,1-12.06,1.86h-23.04Z"/>
</svg>
