<svg xmlns="http://www.w3.org/2000/svg" width="98.9" height="30.714"><path fill="#2b61d1" d="M15.46 0A15.357 15.357 0 1 1 0 15.357 15.41 15.41 0 0 1 15.46 0" data-name="Path 81"/><g fill="#fff" data-name="Group 179"><path d="m17.292 24.274-1.761 1.017-3.783-2.181 1.718-.992.043-.025.066.038Z" data-name="Path 73"/><path d="M24.052 10.534v2.047l-3.724-2.15-1.01-.583-1.01.583-4.733 2.734-1.01.583v1.207l-1.821-1.051-1.01-.583-1.01.583-1.713.988v-4.358l8.52-4.919Z" data-name="Path 74"/><path d="M24.052 14.91v5.47l-4.733 2.73h-.006l-4.728-2.73v-5.47l4.734-2.734Z" data-name="Path 75"/><path d="M12.456 17.222v3.143l-2.723 1.573-2.722-1.572v-3.143l2.723-1.572Z" data-name="Path 76"/></g><g fill="#36395a" data-name="Group 178"><path d="M42.853 9.325v5.272h9.636v3.7h-9.636v7.268h-4.818V5.615h15.732v3.71Z" data-name="Path 77"/><path d="M55.878 5.615h4.638v19.948h-4.638Z" data-name="Path 78"/><path d="M80.251 9.561v16h-4.4v-1.903a6.47 6.47 0 0 1-4.966 2.141c-4.015 0-6.841-2.26-6.841-7.2V9.561h4.64v8.36c0 2.677 1.189 3.867 3.241 3.867 2.141 0 3.687-1.368 3.687-4.314V9.561Z" data-name="Path 79"/><path d="m93.637 25.563-3.509-4.909-3.623 4.909h-5.062l6.155-8.062-5.945-7.94h5.2l3.4 4.67 3.48-4.67h4.937l-5.949 7.821 6.18 8.181Z" data-name="Path 80"/></g></svg>