<svg xmlns="http://www.w3.org/2000/svg" width="338.064" height="335.661"><ellipse cx="169.032" cy="167.831" fill="#2b61d1" data-name="Ellipse 64" rx="169.032" ry="167.831"/><g fill="#fff" data-name="Group 179"><path d="m189.285 265.438-19.224 11.107-41.3-23.841 18.756-10.832.469-.276.717.413Z" data-name="Path 73"/><path d="M263.081 115.435v22.352l-40.653-23.469-11.025-6.367-11.025 6.367-51.677 29.836-11.025 6.367v13.16l-19.885-11.479-11.025-6.367-11.025 6.367-18.7 10.79v-47.557l93.02-53.7Z" data-name="Path 74"/><path d="M263.082 163.254v59.671l-51.678 29.835-.069-.041-51.609-29.794v-59.671l51.678-29.849Z" data-name="Path 75"/><path d="M136.491 188.459v34.314l-29.725 17.171-29.725-17.171v-34.314l29.725-17.157Z" data-name="Path 76"/></g></svg>