<svg xmlns="http://www.w3.org/2000/svg" width="1080" height="1080" fill="none"><g clip-path="url(#a)"><circle cx="540" cy="540" r="540" fill="#1b63ef"/><path fill="#fff" d="m511.3 568.282 10.468-6.044c9.566-5.523 25.076-5.523 34.641 0l10.469 6.044-27.789 16.044z"/><path fill="#fff" d="m511.407 568.331 27.789 16.044v243.87l-27.789-16.044z"/><path fill="#fff" d="m538.361 584.459 27.789-16.044v243.87l-27.789 16.044z"/><path fill="#fff" d="m539.644 827.555 138.946-80.221v44.177c0 11.045-7.755 24.477-17.32 30l-121.626 70.22z"/><path fill="#fff" d="m401.023 747.334 138.946 80.221v64.176l-121.625-70.22c-9.566-5.523-17.321-18.954-17.321-30zM557.614 487.42l27.789 16.044v32.088l-10.469-6.044c-9.566-5.523-17.32-18.954-17.32-30zm0 0 194.524-112.309 27.789 16.044-194.524 112.309z"/><path fill="#fff" d="m638.476 310.935 38.258-22.088c9.565-5.523 25.075-5.523 34.641 0L833 359.067l-55.578 32.089zm-53.908 192.49 194.524-112.308v32.088L584.568 535.513z"/><path fill="#fff" d="m777.097 390.514 55.578-32.089v140.441c0 11.046-7.755 24.478-17.32 30l-38.258 22.089zM247 357.784l121.625-70.221c9.566-5.523 25.076-5.523 34.641 0l38.258 22.088-138.946 80.221zm249.004 143.755 27.789-16.044v12.088c0 11.046-7.754 24.477-17.32 30l-10.469 6.044z"/><path fill="#fff" d="m302.192 389.23 194.524 112.309v32.088L302.192 421.319z"/><path fill="#fff" d="m247 357.142 55.578 32.088v160.441l-38.258-22.088c-9.565-5.523-17.32-18.954-17.32-30zm56.058 33.23c-.479-.276-.479-.724 0-1l26.057-15.044c.478-.276 1.254-.276 1.732 0l192.792 111.309c.478.276.478.723 0 1l-26.057 15.044c-.478.276-1.254.276-1.732 0zm474.039 192.134c0-11.045 7.754-24.477 17.32-30l38.258-22.088v128.353l-55.578 32.088z"/><path fill="#fff" d="M693.667 758.387c0-11.045 7.755-24.477 17.321-30l121.625-70.22v44.176c0 11.046-7.754 24.477-17.32 30l-121.626 70.221zM247 658.771l121.625 70.22c9.566 5.523 17.321 18.954 17.321 30v44.176l-121.625-70.22c-9.566-5.523-17.321-18.954-17.321-30z"/><path fill="#fff" d="m247 530.418 38.258 22.088c9.566 5.523 17.32 18.954 17.32 30v108.353L247 658.771zm151.456-260.556 88.926-51.341 55.578 32.088-71.605 41.341c-9.566 5.523-25.075 5.523-34.641 0z"/><path fill="#fff" d="M483.169 221.088 521.427 199c9.566-5.523 25.075-5.523 34.641 0l127.183 73.429-38.258 22.089c-9.566 5.522-25.075 5.522-34.641 0z"/></g><defs><clipPath id="a"><path fill="#fff" d="M0 0h1080v1080H0z"/></clipPath></defs></svg>