<svg xmlns="http://www.w3.org/2000/svg" width="318" height="54" fill="none"><g clip-path="url(#a)"><path fill="#fff" fill-rule="evenodd" d="m311.864 19.557 5.733-9.43L314.417 0H95.852l-1.023 7.39L92.803 0H41.867l-1.755 6.958h-4.234l-1.005 3.848L29.252 0h-16.6L0 40.283 10.081 54h16.578l2.028-7.61h6.696l4.49 7.61h51.172l1.219-8.827L95.096 54H266.06l6.922-14.229h6.259l5.813-11.286L291.261 54h17.211L318 40.261zm-147.719 9.556.021-4.808h14.704l.149 4.808zM3.118 39.773l11.61-36.971h12.576l-2 6.957h4.253l-1.997 7.165h8.633l1.87-7.165h4.253l1.755-6.957h12.575l-8.34 36.97 6.033 11.429H41.492L34.75 39.773l3.899-15.467h-4.382l-1.986 7.609h-8.898l2.12-7.609H21.12l-4.447 15.466 7.69 11.429H11.516zm49.706 0 8.013-36.971h12.575l-7.032 36.97 5.087 11.429H58.62zm34.601-19.185-2.97 19.184 4.141 11.429H75.749L70.9 39.772l6.705-36.97H90.18l-1.078 6.957h4.253l-1.046 7.165h4.317l1.936-14.122h12.575l-4.088 36.97 2.958 11.429H97.16l-3.667-11.428 1.603-11.692H90.68l1.094-7.493zm55.773 19.184.313-7.857h-17.797l.572-7.609h17.528l.295-7.382h-17.267l.539-7.165h17.013l.277-6.957h-29.342l-3.762 36.97h.002l2.72 11.429h29.976L143.2 39.772zm5.665-36.97-1.145 36.97.828 11.429h29.976l.828-11.428h.001l-.243-7.858h-17.797l.097-22.156h17.012l-.215-6.957zm48.562 36.97h-13.556l-1.065 11.429h12.847zm4.519 0-2.011 11.429h12.847l2.72-11.429zm31.63 0-1.603-11.69h4.416l1.706 11.69-3.903 11.429h12.847l4.612-11.428h.001l-6.378-36.971H215.93l4.088 36.97-2.956 11.428h12.846zm17.745 11.429 4.849-11.429-6.704-36.97h29.341l1.693 6.957h-17.013l1.489 7.165h17.267l1.796 7.382h-17.528l3.216 15.466h-.001l-5.559 11.429zm50.037-11.428L294.141 51.2h12.846l7.925-11.428-8.895-30.014h8.507l-2.185-6.957h-29.342l1.755 6.957h8.506zm-104.958-15.47h4.382l1.163 15.466h13.556l-1.951-19.185h-4.349l-.341-3.663h4.317l-1.437-14.123h-29.342l1.472 36.972h13.556zm-.49-7.382-.475-7.165h4.253l.539 7.165zm41.635-.602h-2.155l-.267-1.806h5.012l-.75-4.753h-5.671l.606 4.154h-4.29l-.57-4.154h-5.671l.596 4.752h5.011l.245 1.807h-2.155l.884 6.741h2.915l-.339-2.472h4.349l.36 2.472h2.914z" clip-rule="evenodd"/></g><defs><clipPath id="a"><path fill="#fff" d="M0 0h318v54H0z"/></clipPath></defs></svg>