<?xml version="1.0" encoding="UTF-8" standalone="no"?>
<svg
   xmlns:dc="http://purl.org/dc/elements/1.1/"
   xmlns:cc="http://creativecommons.org/ns#"
   xmlns:rdf="http://www.w3.org/1999/02/22-rdf-syntax-ns#"
   xmlns:svg="http://www.w3.org/2000/svg"
   xmlns="http://www.w3.org/2000/svg"
   width="1775"
   height="500"
   viewBox="0 0 469.63518 132.29165"
   version="1.1"
   id="svg5344">
  <title
     id="title2444">Flux Logo - White text</title>
  <defs
     id="defs5338" />
  <metadata
     id="metadata5341">
    <rdf:RDF>
      <cc:Work
         rdf:about="">
        <dc:format>image/svg+xml</dc:format>
        <dc:type
           rdf:resource="http://purl.org/dc/dcmitype/StillImage" />
        <dc:title>Flux Logo - White text</dc:title>
      </cc:Work>
    </rdf:RDF>
  </metadata>
  <g
     id="g8053">
    <path
       d="m 43.479169,92.903769 -14.930513,8.634801 -14.943217,-8.612798 -0.0127,-17.247605 14.930513,-8.634806 14.943217,8.612802 z"
       id="path815-9-7-0-6-8-0-4-5-7-9-7-5-3-2-7-2-1-56-7-5-5-2-6-0"
       style="font-style:normal;font-variant:normal;font-weight:500;font-stretch:normal;font-size:medium;line-height:1.25;font-family:Heebo;-inkscape-font-specification:'Heebo, Medium';font-variant-ligatures:normal;font-variant-caps:normal;font-variant-numeric:normal;font-feature-settings:normal;text-align:center;letter-spacing:0px;word-spacing:0px;writing-mode:lr-tb;text-anchor:middle;opacity:1;fill:#3f3f3f;fill-opacity:1;fill-rule:nonzero;stroke:#3f3f3f;stroke-width:0;stroke-linecap:round;stroke-linejoin:round;stroke-miterlimit:4;stroke-dasharray:none;stroke-dashoffset:0;stroke-opacity:1;paint-order:normal" />
    <path
       d="M 105.75048,92.906048 79.569069,108.04761 53.36538,92.944628 53.343106,62.700075 79.52452,47.558508 105.72821,62.661494 Z"
       id="path815-9-7-0-6-8-1-2-5-4-6-3-2-3-3-8-61-7-1-0-2"
       style="font-style:normal;font-variant:normal;font-weight:500;font-stretch:normal;font-size:medium;line-height:1.25;font-family:Heebo;-inkscape-font-specification:'Heebo, Medium';font-variant-ligatures:normal;font-variant-caps:normal;font-variant-numeric:normal;font-feature-settings:normal;text-align:center;letter-spacing:0px;word-spacing:0px;writing-mode:lr-tb;text-anchor:middle;opacity:1;fill:#aee9db;fill-opacity:1;fill-rule:nonzero;stroke:#3f3f3f;stroke-width:0;stroke-linecap:round;stroke-linejoin:round;stroke-miterlimit:4;stroke-dasharray:none;stroke-dashoffset:0;stroke-opacity:1;paint-order:normal" />
    <path
       id="path2554"
       style="font-style:normal;font-variant:normal;font-weight:normal;font-stretch:normal;font-size:191.99412537px;line-height:1.25;font-family:'White Rabbit';-inkscape-font-specification:'White Rabbit, Normal';font-variant-ligatures:normal;font-variant-caps:normal;font-variant-numeric:normal;font-feature-settings:normal;text-align:center;letter-spacing:0px;word-spacing:0px;writing-mode:lr-tb;text-anchor:middle;fill:#36c9a5;fill-opacity:1;stroke:none;stroke-width:0;stroke-miterlimit:4;stroke-dasharray:none;stroke-opacity:1"
       d="m 186.38138,73.765248 h -35.76346 v 28.610772 q 0,10.01377 -2.14581,12.15958 -2.14581,2.1458 -5.00688,2.1458 -2.86108,0 -5.00688,-2.1458 -2.14582,-2.14581 -2.14582,-5.00689 V 23.696392 q 0,-2.861077 2.14582,-5.006885 2.1458,-2.145808 5.00688,-2.145808 h 57.22154 q 2.86108,0 5.00689,2.145808 2.14581,2.145808 2.14581,5.006885 0,2.861077 -2.14581,5.006887 -2.14581,2.145805 -5.00689,2.145805 h -50.06885 v 28.610773 h 35.76346 q 2.86109,0 5.00689,2.145806 2.14581,2.145813 2.14581,5.00689 0,2.861076 -2.14581,5.006882 -2.1458,2.145813 -5.00689,2.145813 z" />
    <path
       id="path2556"
       style="font-style:normal;font-variant:normal;font-weight:normal;font-stretch:normal;font-size:191.99412537px;line-height:1.25;font-family:'White Rabbit';-inkscape-font-specification:'White Rabbit, Normal';font-variant-ligatures:normal;font-variant-caps:normal;font-variant-numeric:normal;font-feature-settings:normal;text-align:center;letter-spacing:0px;word-spacing:0px;writing-mode:lr-tb;text-anchor:middle;fill:#36c9a5;fill-opacity:1;stroke:none;stroke-width:0;stroke-miterlimit:4;stroke-dasharray:none;stroke-opacity:1"
       d="m 243.72866,116.6814 q -2.86108,0 -5.00688,-2.1458 -2.14581,-2.14581 -2.14581,-5.00689 0,-2.86108 2.14581,-5.00688 2.1458,-2.14581 5.00688,-2.14581 h 7.1527 V 30.849084 h -7.1527 q -2.86108,0 -5.00688,-2.145805 -2.14581,-2.14581 -2.14581,-5.006887 0,-2.861077 2.14581,-5.006885 2.1458,-2.145808 5.00688,-2.145808 h 14.30539 q 2.86108,0 5.00688,2.145808 2.14581,2.145808 2.14581,5.006885 v 78.679628 h 7.15269 q 2.86108,0 5.00689,2.14581 2.14581,2.1458 2.14581,5.00688 0,2.86108 -2.14581,5.00689 -2.14581,2.1458 -5.00689,2.1458 z" />
    <path
       id="path2558"
       style="font-style:normal;font-variant:normal;font-weight:normal;font-stretch:normal;font-size:191.99412537px;line-height:1.25;font-family:'White Rabbit';-inkscape-font-specification:'White Rabbit, Normal';font-variant-ligatures:normal;font-variant-caps:normal;font-variant-numeric:normal;font-feature-settings:normal;text-align:center;letter-spacing:0px;word-spacing:0px;writing-mode:lr-tb;text-anchor:middle;fill:#36c9a5;fill-opacity:1;stroke:none;stroke-width:0;stroke-miterlimit:4;stroke-dasharray:none;stroke-opacity:1"
       d="M 365.45017,102.37602 V 52.307162 q 0,-2.861077 2.14582,-5.006882 2.1458,-2.145805 5.00688,-2.145805 2.86108,0 5.00688,2.145805 2.14581,2.145805 2.14581,5.006882 v 57.221548 q 0,2.86108 -2.14581,5.00689 -2.1458,2.1458 -5.00688,2.1458 h -42.91616 q -8.58323,0 -15.02066,-6.43742 -6.43742,-6.43742 -6.43742,-15.020654 V 52.307162 q 0,-2.861077 2.14581,-5.006882 2.14581,-2.145805 5.00688,-2.145805 2.86108,0 5.00689,2.145805 2.14581,2.145805 2.14581,5.006882 v 42.916164 q 0,2.861076 2.1458,5.006884 2.14581,2.14581 5.00689,2.14581 z" />
    <path
       id="path2560"
       style="font-style:normal;font-variant:normal;font-weight:normal;font-stretch:normal;font-size:191.99412537px;line-height:1.25;font-family:'White Rabbit';-inkscape-font-specification:'White Rabbit, Normal';font-variant-ligatures:normal;font-variant-caps:normal;font-variant-numeric:normal;font-feature-settings:normal;text-align:center;letter-spacing:0px;word-spacing:0px;writing-mode:lr-tb;text-anchor:middle;fill:#36c9a5;fill-opacity:1;stroke:none;stroke-width:0;stroke-miterlimit:4;stroke-dasharray:none;stroke-opacity:1"
       d="M 429.95014,90.645602 406.34625,114.5356 q -2.14581,2.1458 -5.00688,2.1458 -2.86108,0 -5.00689,-2.1458 -2.14581,-2.14581 -2.14581,-5.00689 0,-2.86108 2.14581,-5.00688 L 419.65026,80.917935 396.33248,57.314052 q -2.14581,-2.145813 -2.14581,-5.00689 0,-2.861077 2.14581,-5.006882 2.14581,-2.145805 5.00689,-2.145805 2.86107,0 5.00688,2.145805 l 23.60389,23.317778 23.60388,-23.317778 q 2.14582,-2.145805 5.00689,-2.145805 2.86108,0 5.00688,2.145805 2.14582,2.145805 2.14582,5.006882 0,2.861077 -2.14582,5.00689 l -23.88999,23.603883 23.88999,23.603895 q 2.14582,2.1458 2.14582,5.00688 0,2.86108 -2.14582,5.00689 -2.1458,2.1458 -5.00688,2.1458 -2.86107,0 -5.00689,-2.1458 z" />
    <path
       id="path5417"
       d="m 38.624429,107.3452 9.815568,-5.66964 21.060351,12.14248 -9.803752,5.67555 z"
       style="font-style:normal;font-variant:normal;font-weight:500;font-stretch:normal;font-size:medium;line-height:1.25;font-family:Heebo;-inkscape-font-specification:'Heebo, Medium';font-variant-ligatures:normal;font-variant-caps:normal;font-variant-numeric:normal;font-feature-settings:normal;text-align:center;letter-spacing:0px;word-spacing:0px;writing-mode:lr-tb;text-anchor:middle;fill:#36c9a5;fill-opacity:1;stroke:none;stroke-width:0;stroke-linecap:butt;stroke-linejoin:miter;stroke-miterlimit:4;stroke-dasharray:none;stroke-opacity:1" />
    <path
       id="path5419"
       d="m 13.607139,64.102383 12.118857,-6.968937 c 0,0 2.693079,-1.736323 5.386161,-0.165365 2.90569,1.630026 12.201539,7.075243 12.201539,7.075243 l -0.0069,-3.260936 c 0,0 -0.381333,-3.813791 2.925058,-5.548933 3.384067,-1.854442 30.213827,-17.471278 30.213827,-17.471278 0,0 3.045899,-2.109418 5.894067,-0.177179 3.165551,1.948935 23.375452,13.489017 23.375452,13.489017 L 105.6797,39.699298 59.637499,13.193728 13.642538,39.793798 Z"
       style="font-style:normal;font-variant:normal;font-weight:500;font-stretch:normal;font-size:medium;line-height:1.25;font-family:Heebo;-inkscape-font-specification:'Heebo, Medium';font-variant-ligatures:normal;font-variant-caps:normal;font-variant-numeric:normal;font-feature-settings:normal;text-align:center;letter-spacing:0px;word-spacing:0px;writing-mode:lr-tb;text-anchor:middle;fill:#36c9a5;fill-opacity:1;stroke:#000000;stroke-width:0;stroke-linecap:butt;stroke-linejoin:miter;stroke-miterlimit:4;stroke-dasharray:none;stroke-opacity:1" />
  </g>
</svg>
