<svg xmlns="http://www.w3.org/2000/svg" width="315" height="74" fill="none"><g clip-path="url(#a)"><path fill="#fff" fill-rule="evenodd" d="M23.192 2.568q-.442.637-.56 1.233l-.924 2.454a8.2 8.2 0 0 0-.646 2.426c-.041.398-.343.782-.264 1.23q.034.169.136.023.675-.985 1.71-1.63l1.11-.544q.216-.107.166.106l-.038.155-.604 1.194q-1.268 1.898-1.472 4.034c-.045.487.053 1.031.03 1.551q-.03.615.242 1.081.615 1.07 1.329 1.843c.585.64 1.544 1.127 2.25 1.814q.128.122.317.116c.389-.017.616-.073 1.016.03 2.269.583 4.896.33 7.347.34q5.406.027 10.238 1.609a13.9 13.9 0 0 1 3.783 1.926q.427.308.208.805-.084.189.068.348.397.41.298.925-.042.219.212.232l1.196.07c.14.008.276.05.393.12s.209.168.268.28q1.714 3.296 1.178 6.942-.69 4.724-4.444 7.635-3.82 2.755-8.725 3.325c-.588.07-.792-.123-1.075-.534a1 1 0 0 0-.423-.338q-.223-.087-.227.126-.004.142.159.325.24.586-.272.64-.566.056-2.741.089h-1.578q-.204 0-.2.179l.015 2.536.041 9.54q.144 1.645.499 3.289.094.441-.095.918-.045.12.09.176a.14.14 0 0 0 .148-.028.1.1 0 0 0 .027-.042.41.41 0 0 1 .241-.249.285.285 0 0 1 .325.053l.294.266.499.686.041.116q.06.166-.14.162l-2.812-.04q-1.45.136-2.684-.231a.74.74 0 0 0-.363-.017c-.577.12-1.121.252-1.721.255q-5.415.017-10.753-.003a.46.46 0 0 1-.222-.059.4.4 0 0 1-.153-.153.33.33 0 0 1-.036-.2.35.35 0 0 1 .09-.188q.091-.096.053-.192-.063-.193-.211-.04l-.85.868-1.155-.01a2.3 2.3 0 0 0-.694 0l-.329-.03q-.88.19-1.174-.052-.087-.369.66-.428.526-.066.937-.5l1.71-1.41c2.303-2.204 3.549-5.032 4.395-7.906q.048-.162.234-.195.784-.156 1.042-.411.003-1.055 1.166-2.046a.24.24 0 0 0 .085-.168.24.24 0 0 0-.066-.176l-1.268-1.333q-.193-.703-.166-.951.841-7.83.071-15.664a88 88 0 0 0-.366-1.969q-.215-1.117.057-2.022.796-.686 1.774-.603.185.016.117-.136-.314-.692-.872-.935-1.491-.643-2.37-1.216-.854-.375-1.628-1.28l-.434-.908a.5.5 0 0 0-.242-.239l-.989-.494q-.533-.686-1.152-.965c-3.243-1.448-6.327-2.97-8.936-5.244q-2.979-2.482-4.145-5.914L1.076 7.92q.14-.243.15-.083.137-.389-.147-.932a.9.9 0 0 0-.117-.268.7.7 0 0 1-.12-.355 8.4 8.4 0 0 1 .403-2.914q.087-.278.167.004l.124.427a10.3 10.3 0 0 0 1.091 3.438 20 20 0 0 0 2.836 4.246q.43.498.736 1.068.015.185.09.331.08.15.265.146a.96.96 0 0 1 .653.232q1.177 1.008 2.56 1.856a.18.18 0 0 0 .156.014.2.2 0 0 0 .065-.044.13.13 0 0 0 .031-.066l.159-.944a6.96 6.96 0 0 1 1.593-2.858 7.5 7.5 0 0 1 1.963-2.427q.296-.24.144.087c-.234.5-.514.984-.687 1.505a70 70 0 0 0-1.224 4.127l.167 1.558q.015.162.18.242l1.881.908 2.205.998 2.631 1.144q.32.135.2-.156l-1.083-2.679a13 13 0 0 1-.132-4.558 21.4 21.4 0 0 1 2.216-6.106A32.2 32.2 0 0 1 24.35.04q.056-.065.136-.02l.079.047q.003.006 0 .01zM32.29 26.99l.038 3.5q-.064.206-.359.279-.173.043-.12.195.43 1.27.422 2.062-.026 2.784-.007 5.52l-.14 2.827q-.237.172-.242.372-.008.175.19.139.135-.024.2-.166a24 24 0 0 1 2.57-1.038q1.877-.636 3.934-2.86.39-.276.737-.136.102.04.06-.053a.5.5 0 0 0-.08-.12.28.28 0 0 1-.06-.288l.11-.332 1.223-2.065c1.284-2.88.434-6.812-3.047-8.165q-2.329-.905-5.225-.812-.207.007-.208.19zm106.1-13.453.227 3.478c.005.11.051.216.132.302q.958 1.04.747 2.43-.083.267-.396.47l-.351.305q-.178 1.469-1.537 2.224-2.076 1.155-2.737 1.618l-.109-.487q.041-.19-.042-.52-.242-1.532-.162-2.6.034-.441.498-.732a.1.1 0 0 0 .042-.046.1.1 0 0 0 .003-.06.1.1 0 0 0-.035-.05.13.13 0 0 0-.063-.026q-.362-.045-.302-.368.336-1.767 1.182-2.768.706-.843-.227-.193-1.128.783-1.989 2.172-1.023 1.647-.446 4.382-2.432-2.888-.528-5.87 1.46-2.285 4.066-3.435.48-.345 1.053-.51l.903-.292q.222-.07.177.132zm58.223 10.715.721 2.224q.929 3.057-.883 4.588-.828.573-1.352.259a3.2 3.2 0 0 1-.936-.836.5.5 0 0 1-.098-.38.54.54 0 0 1 .207-.346c1.499-1.18 2.318-2.125 2.326-4.014a.2.2 0 0 0-.02-.086.25.25 0 0 0-.139-.12.3.3 0 0 0-.098-.016l-.106.003a.15.15 0 0 0-.096.035.12.12 0 0 0-.043.084c-.072 1.336-.903 2.036-2.009 2.782-2.884 1.942-.838 2.957.725 4.674l1.306 1.74q.793 1.067 1.001 2.208a5.5 5.5 0 0 1-1.593.832q-.37-.003-.487.03-.759.225.03.344.25.037.8-.04.744.075 1.574.57l.578.468q.148.12.196.295 1.67 6.07-.385 11.828a.36.36 0 0 1-.101.147.4.4 0 0 1-.167.092 1.7 1.7 0 0 1-.777.046q-.37-.066-.072.136.203.139.419.209.321.248.177.54a17.3 17.3 0 0 1-2.514 3.766q-5.267 5.562-13.595 6.262-7.6.639-14.007-2.897-.525-.292-.483-.67.404-.57.755-.68.849-.262-.03-.42-1.14-.202-2.7-.034a12.6 12.6 0 0 1-1.529-1.342q-3.968-4.164-4.707-9.693l-.117-4.628q.309-1.38.645-2.804.313-1.343 1.96-1.714.516-.09.585-.08 1.088.19.29-.49-.286-.25-.487-.74c.318-.925.499-2.21 1.061-2.98.71-.968 1.986-1.992 2.798-2.599l.332-.252.91-.6a1 1 0 0 0 .294-.165q.356-.136.684-.405c5.799-2.854 12.258-3.295 18.703-1.68.691.172 1.397.215 2.099.305l2.85.033q.023.15.114.235.136.132.298.023c.562-.384.831-.881 1.438-1.2a9 9 0 0 0 1.631-1.064q.964-.795 1.291-1.773-.078.012.031-.206a.6.6 0 0 1 .087-.335q.105-.165.275-.05.29.195.34.58Zm-23.487 8.032q-1.877 1.392-2.397 3.716l-.2.746a.37.37 0 0 1-.215.245 1.1 1.1 0 0 1-.559.103q-.272-.024-.083.146.234.212.494.354a.3.3 0 0 1 .118.117q.04.073.033.152-.082.793-.139 1.624-.445 6.568 3.518 12.043l.767.985q.759.991.702 2.065a.6.6 0 0 1-.102.312l-.385.577q-.174.257.128.116 1.665-.79 2.93.043 1.779 1.167 2.703 1.548c3.609 1.624 5.633-1.373 6.29-3.909q.144-.553.547-.112.174.192.386.355.344.261.177-.113c-.261-.57-.691-1.323-.649-1.963q.026-.375.083-.736c.717-4.982-1.152-10.922-4.312-14.914-1.74-2.197-4.141-3.842-7.23-4.08q-1.441-.113-2.605.58M57.46 27.258l.261.02q4.934.02 9.843.007.465 0 1.015.348.398.22 1.563-.418.646-.039.918.6.344.587.241 1.303a31 31 0 0 0 2.737 7.256c.423.803.563 1.469.178 2.228q-.144.288.162.123.93-.498 1.556.63l2.16 2.45.668.606q-.767.08-1.526-.401-.71-.45-1.325-.872-.253-.17-.072.06l2.647 3.394 1.521 1.465.257.15.151.112.453.375.302.311q-.328.054-1.14-.208l-2.749-1.575q-.256-.305-.524-.378-.223-.063-.125.12.132.241.366.41l3.096 3.567 1.133 1.005 2.242 1.591q.442.315-.124.265-.756-.062-1.801-.494l-1.14-.557-.453-.271-2.326-1.635q-.528-.37-.317.196a126 126 0 0 1 1.397 3.961q.192.577.049 1.16l-.298 1.174c-.09.335-.385.653-.333.988q.03.189.246.222.675.103 1.159.418.075.103.181.112c.465.335.842.498 1.129.988q.521.896 1.117 1.73.477.677.967 1.33.405.534.019 1.074a3.2 3.2 0 0 0-1.314-.05l-2.31-.046a.5.5 0 0 1-.352-.14l-.268-.251q-.15-.14-.313-.017c-.298.222-.582.424-1 .424q-4.365.008-8.763 0a.44.44 0 0 0-.121-.248l.159-2.619-1.431-5.725a.34.34 0 0 0-.14-.2.43.43 0 0 0-.253-.075q-2.285.023-4.557.043-1.28.013-2.114-.215a.43.43 0 0 0-.34.043q-.513.295-.52.96l-.956 3.134q-.472 1.27-.26 2.897l.136 1.644q.041.537-1.439.378l-10.495-.007-2.36.02a.3.3 0 0 1-.114-.024.24.24 0 0 1-.088-.068.19.19 0 0 1-.024-.2 4.3 4.3 0 0 1 1.034-1.372c2.752-2.987 3.907-6.653 5.418-10.183q.135-.322.902-.73a.1.1 0 0 0 .032-.029.1.1 0 0 0 .01-.04c-.05-.534-.223-.982-.012-1.512a570 570 0 0 1 3.673-8.947c.416-.985.514-1.664 1.74-2.095l1.772-.017q.045 0 .082-.024a.13.13 0 0 0 .052-.061.1.1 0 0 0 .002-.077.13.13 0 0 0-.05-.063l-.653-.444a.6.6 0 0 1-.23-.269 4.76 4.76 0 0 1-.438-2.224l.344-1.323q.48-.872.589-1.886l.668-.563q.14-.116.019-.25-.506-.566-1.37-.845l-1.45-1.528a5 5 0 0 1 1.623-.116Zm7.903 19.86q.321.21.758.305a.3.3 0 0 0 .141-.005.25.25 0 0 0 .116-.07.2.2 0 0 0 .027-.236c-.174-.295-.37-.524-.442-.869a812 812 0 0 1-2.05-9.995q-.185-.937-.434-.01-.004.014.007.296a.8.8 0 0 1-.034.281q-1.404 5.01-2.831 10.035-.05.179.162.179l4.263-.004q.173 0 .317.093m21.535-19.896q.177.105.456.046l1.975.02 1.891.176q.121.09.287.129a.55.55 0 0 0 .351-.033q.616-.276 1.095-.269 2.692.04 5.403-.03l2.359-.013q.756-.02.544.269l-.479.427q-.593.742-1.665.498a.12.12 0 0 0-.08.01.1.1 0 0 0-.03.026.1.1 0 0 0-.015.033l-.022.11q-.024.09.082.109.521.103.827.434a10 10 0 0 1-.105 1.14 8 8 0 0 0-.106 1.144q-.03 3.229-.008 6.461c.004.55-.173.869-.638 1.187a.34.34 0 0 1-.364.005.3.3 0 0 1-.085-.085.32.32 0 0 0-.223-.139q-.252-.044-.128.156.426.68 1.038 1.203c.442.378.434.614.427 1.12q-.05 3.933-.046 12.949l-.215 1.505q-.025.162.117.265l.148.113q.162.12.328.003c.321-.229.608-.398 1.053-.394a30.5 30.5 0 0 0 5.399-.438l3.749-1.004.714-.279 1.298-.563q.181-.08.132.092l-.29 1.015-.461 1.273q-.12.437-.479.557-.201.07-.102.238l.071.12c.064.11.076.237.034.354l-1.646 4.704a.36.36 0 0 1-.234.222q-.287.103-.743.096l-1.794-.076q-.185-.006-.222-.169a.9.9 0 0 1 0-.381q.034-.17-.14-.249a.23.23 0 0 0-.178-.006 1.5 1.5 0 0 1-.347-.938q-.003-.083-.098-.087l-.117-.006q-.099-.004-.098.083l.003.573q-.056.69-.498 1.07a.54.54 0 0 1-.347.123H94.637a.87.87 0 0 1-.525-.172.7.7 0 0 1-.268-.434 1.6 1.6 0 0 0-.226-.627.14.14 0 0 0-.053-.048.16.16 0 0 0-.147 0 .14.14 0 0 0-.053.048l-.608 1.055q-.099.175-.325.175l-5.063.023-.713-.033q-.192-.006-.185-.179.03-.507.34-1.094.917-1.59.925-4.027.026-8.52.019-17.042c0-.7.185-1.386.558-1.996q.114-.192-.132-.206a.5.5 0 0 1-.264-.08.31.31 0 0 1-.155-.271q.012-4.14-.038-5.51a6.1 6.1 0 0 0-.755-2.724l-.396-.617a4.5 4.5 0 0 1-.438-.676q-.087-.166-.008-.265.09-.117.329-.133zm24.332.056.762.003 7.532.027a.6.6 0 0 1 .336.096q.16.102.344.146.324.447.827.212.94-.435 1.283-.5l1.046-.03.914.062q.204.017.136.186l-.265.65a4.6 4.6 0 0 0-.407 1.906q-.106 1.17-.004 1.664.623 3.11 1.287 6.216.06.28-.34 1.1-.075.147.072.245.476.322.725.78l.242 1.11q.391 2.22.906 4.395.105.452-.189.932a.57.57 0 0 0-.057.52.52.52 0 0 0 .306.306q.231.092.306-.12l2.782-7.923.638-1.664q.065-.162.257-.202l.616-.126q.694-.099 1.442.18a.23.23 0 0 0 .218-.032.2.2 0 0 0 .06-.087.16.16 0 0 0-.003-.1q-.328-.895-1.189-1.612-.921-.52.298-2.784l.782-2.404.657-1.843a1.57 1.57 0 0 1 .555-.931q.055-.045.128-.06a.3.3 0 0 1 .146.003.3.3 0 0 1 .125.065c.035.03.06.07.073.111l.241.782.695 1.996a852 852 0 0 0 3.726 10.31q.007.02.03.02l.023-.004a.4.4 0 0 0 0 .126.19.19 0 0 1-.068.176l-.842.739q-.445.387.181.345 1.164-.08 1.518 1.037.356 1.114.801 2.248l.419 1.372q.033.11.162.12a.2.2 0 0 0 .109-.024q.076-.039.095-.165.117-.743.2-1.489l.759-3.865.324-1.558.144-.845q.222-.514.098-.82 1.424-4.647 1.197-9.377-.264-.418-.306-1.184l.555-.437q5.142.03 10.231.03.174 0 .57.265.02.165.121.282.121.142.314.082.483-.149.853-.467a.6.6 0 0 1 .317-.146l.574-.093q.827-.02.921.382L157.1 29.85q-.944 1.97-1.532 4.34-.155.626-.718 1.183a.27.27 0 0 0-.071.295l.139.401a.54.54 0 0 1 .012.338 5258 5258 0 0 0-2.401 8.735c-.129.47-.408.766-.733 1.127l-.861.869a.2.2 0 0 1-.075.05l-.782.34q-.22.094-.041.243l1.166.991q.039 2.128-.751 3.912-.355.802-.513 1.372-.167.606-.404 1.19-.208.51-.291 1.08-.347 2.325-1.382 5.596a.27.27 0 0 1-.185.176q-.28.093-.77.083-.702-.222-1.374-.875-.117-.116-.087.036.027.12.151.212.113.282-.072.448-.12.113-.419.116-3.07.033-6.142 0a.5.5 0 0 1-.318-.113l-.596-.487q-.52-.524-.714-1.482l-.09-.331-.77-2.772a.3.3 0 0 1-.003-.158.35.35 0 0 1 .074-.147l.514-.61q.159-.188-.102-.245-.88-.185-1.038-.722a148 148 0 0 1-1.533-5.63q-.196-.778-.397 0l-1.714 6.687a664 664 0 0 0-1.336 5.102q-.008.03-.06.341-.121.746-1.182.617a11.4 11.4 0 0 1-1.888-.153c-.472-.083-.815.053-1.276.07q-2.54.086-5.572.036a.23.23 0 0 1-.17-.07.3.3 0 0 1-.068-.099l-.37-1.336a335 335 0 0 0-1.994-6.693q-.11-.351.05-.924a.28.28 0 0 0-.08-.282q-.472-.485-.543-.723-2.953-9.975-5.909-19.95a.6.6 0 0 1 0-.324 3.1 3.1 0 0 0 .03-1.658.37.37 0 0 0-.215-.248.8.8 0 0 0-.226-.073 3 3 0 0 1-.971-.534l-.702-.968-.615-.765q-.133-.166.098-.166zm92.84-.043 3.605.076a.52.52 0 0 1 .321.11.37.37 0 0 1 .132.202q.114.487.491.12c.355-.345.714-.435 1.239-.438q7.666-.046 9.948-.004.97.017 2.926.338.31.461.607.12l1.201.205 1.51.52c4.749 1.685 7.872 5.242 7.188 9.916a9.4 9.4 0 0 1-1.51 3.835q-.226.338-.574.345l-1.982-.073a1.8 1.8 0 0 0-.49-.11q-.211-.013-.235.17-.015.093.091.195.106.11.442.133.615.543.287 1.601-.264.36-.797.646l-1.695.7q-.174.069-.102.225l.868 1.82 1.692 2.718c.366.508.849 1.104.955 1.711q.06.354.536.567.204.09.328.252a101 101 0 0 0 7.759 8.88l-.049.083q-.03.057-.102.057l-2.964-.023-7.279-.004a.8.8 0 0 1-.528-.189l-1.699-1.468a.4.4 0 0 1-.147-.295.76.76 0 0 1 .207-.537q.174-.2-.113-.18l-.691.047a.43.43 0 0 1-.34-.12 35.3 35.3 0 0 1-4.017-4.604 39.3 39.3 0 0 1-4.511-7.833q-.148-.345-.249.01a.77.77 0 0 0 .045.527.55.55 0 0 1 .019.418q-.144.411-.744.563a.2.2 0 0 0-.098.056.17.17 0 0 0-.032.195.2.2 0 0 0 .077.077c1.057.584.827 1.863.823 2.802l-.034 2.022q0 .176-.166.275a1.67 1.67 0 0 1-1.027.262q-.346-.03-.102.185a5.3 5.3 0 0 1 1.288 1.645q-.121 2.565.902 4.7l.679 1.054q.094.153-.018.295a.3.3 0 0 1-.253.12.35.35 0 0 1-.261-.106 7 7 0 0 1-.264-.279q-.125-.14-.276-.016a.7.7 0 0 0-.188.295l-1.715.063-3.639-.047-.906-1.203a.1.1 0 0 0-.047-.037.14.14 0 0 0-.123.002.1.1 0 0 0-.045.038l-.895 1.267-5.342.056q-.374-.02-.566-.136-.2-.116-.136-.424a4.1 4.1 0 0 1 .524-1.297 6.7 6.7 0 0 0 .661-2.698q.045-1.313.03-2.609-.008-.596.265-1.87a5.2 5.2 0 0 0 .018-2.224q-.271-1.286-.271-1.856-.004-7.117.003-14.228 0-.169.121-.301a3.6 3.6 0 0 1 1.103-.816q.234.083.407.043.219-.045.132-.232-.154-.33-.766-.408c-1.106-.44-1.102-1.538-1.038-2.51q.034-.51-.604-1.15a1.8 1.8 0 0 0-.272-.6l-.604-1.027q-.083-.146.041-.265.39-.367 1.035-.345m11.945 6.282-.068 2.834q.208 1.03-.332 1.72-.11.14 0 .276l.245.308a.44.44 0 0 1 .102.282l.004 2.532.03 2.822q.001.046.024.086a.2.2 0 0 0 .063.07.25.25 0 0 0 .193.04q5.508-1.075 7.165-5.756.589-2.008-.196-3.633c-1.125-2.327-4.33-3.096-7.034-2.96q-.2.01-.2.186zm38.943-6.305q.181.307.853.497l-.812 1.468c-.607 1.76-.449 3.56-.49 5.344a.6.6 0 0 1-.102.315l-1.223 1.803q-.133.196.117.13c.392-.106.509-.448.819-.54a.4.4 0 0 1 .249-.004q.189.06.189.235l-.015 17.686-.495 1.76q-.128.066-.098.345a.2.2 0 0 0 .047.107q.038.048.101.074a.29.29 0 0 0 .252-.019 1.5 1.5 0 0 0 .449-.424l2.152-.232 1.454-.063 3.032-.352 2.499-.573q1.12-.49 2.171-.295.452-.304.815-.892a.3.3 0 0 0 .117-.053.2.2 0 0 1 .17-.036q.174.04.121.172-.381.99-.729 1.956l-.872 1.1a.23.23 0 0 0-.026.272c.377.723-.223 2.022-.669 3.053q-.275.64-.909.312a.43.43 0 0 0-.306-.037 3.1 3.1 0 0 1-1.057.067q-.249-.027-.117.159.438.61 1.004.447.597-.171.717.372l.061.275q.11.49-.461.49l-1.393-.003-10.092-.03q-.185 0-.245-.155l-.174-.471-.105-.444q-.053-.206-.231-.067a.54.54 0 0 0-.189.325c-.441.524-.845.819-1.646.822q-4.103.03-8.2.004-.411.089-.74.04-.222-.034-.094-.193l.759-.951a5.67 5.67 0 0 0 .993-2.918q.087-1.59.03-5.711a.3.3 0 0 1 .034-.149.4.4 0 0 1 .102-.123l.562-.431q.926-.52 1.673-.348 1.156.265.313-.477c-.479-.425-1.264-.766-1.699-1.28-.532-.643-.215-1.492-.49-2.247q-.042-.515-.397-1.065a.55.55 0 0 1-.094-.308q.011-7.253-.012-14.5 0-1.226-.879-2.734l-.408-.577a.6.6 0 0 1-.087-.18q-.041-.172.151-.235a2.8 2.8 0 0 0 .838-.447l4.508.03a.64.64 0 0 1 .366.11l.499.34q.158.111.298-.013l.385-.325 2.114-.135 2.907-.014zm15.746.003q1.008.06 3.938.076.955.007 1.922.74.66.636 1.691 1.137.17.083.245-.077.25-.534.031-1.183-.042-.302.03-.47.064-.167.268-.167 4.606-.019 6.007.037 3.854.153 7.588 1.846 3.73 1.82 5.795 4.373.834 1.024-.041 2.154-.148.195.098.11l.343-.113a.43.43 0 0 1 .385.043l1.144.713a.64.64 0 0 1 .238.255l.465.919q1.736 4.094 1.4 8.108-.034.4-.528.444a.2.2 0 0 0-.075.023.2.2 0 0 0-.053.051.14.14 0 0 0-.021.067.13.13 0 0 0 .017.068c.728 1.283.37 2.652-.016 4.054a95 95 0 0 0-1.106 4.459q-.486 1.54.087 2.874 2.258 3.179 6.652 2.917c2.602-.153 4.704-1.432 5.429-3.63q.151-.46.321-.878a1.8 1.8 0 0 0 .091-1.038c-.166-.835-.102-1.595-.582-2.45q-.086-.152-.23-.043-1.857 1.418-3.537-.205-.616-.597-.593-1.154a1.8 1.8 0 0 1 .804.123q.117.045.208-.03a.14.14 0 0 0 .053-.08q.015-.072-.087-.155-1.74-1.416-2.175-3.438.438-.458-.43-1.856.185-.06.098-.471-.125-1.903.502-1.005.563.71 1.238.982a5.04 5.04 0 0 0 2.247.779q1.725.46 2.665 1.733a.35.35 0 0 1 .068.295l-.045.19q-.034.152.105.251.332.24.359.842a4.7 4.7 0 0 1-.083 1.13.5.5 0 0 1-.008.153.2.2 0 0 1-.066.065.22.22 0 0 1-.191.015.2.2 0 0 1-.079-.053 4.9 4.9 0 0 0-2.51-1.572q-.476-.248-.902-.235-.216.003-.087.156.204.245.555.341 2.502 1.425 3.62 3.978l.389 1.164.117 1.16q.196 1.548-.381 2.894-.412.948-.449 1.044a8 8 0 0 1-.597 1.194 11.7 11.7 0 0 1-3.103 2.31c-4.059 2.105-8.933 2.264-12.625-.484-.261-.192-.31-.388-.321-.666q-.008-.163-.185-.21-.736-.195-1.174-.709-.842-.97-.997-2.048a.25.25 0 0 0-.066-.134.3.3 0 0 0-.138-.082l-.124-.04q-.197-.056-.2.127l-.004.328q-.004.165-.163.255l-1.159.63a17.5 17.5 0 0 1-4.149 1.448c-.74.16-1.276-.063-2.004-.142a6 6 0 0 0-1.008-.312q-.695-.136-.189.302.12.103.517.142.227.219.215.349-.015.122-.29.126-7.536.099-15.476.076l-.415-.043a.33.33 0 0 1-.276-.176 1 1 0 0 1-.113-.421q.45-.888.767-1.73.279-.75.343-1.81.094-1.671.325-3.266l.834-1.856a.6.6 0 0 1 .17-.215q.774-.654.948-1.499a.15.15 0 0 0-.008-.08.16.16 0 0 0-.05-.069.2.2 0 0 0-.08-.039.2.2 0 0 0-.093 0l-1.657.364a.3.3 0 0 1-.114.001.3.3 0 0 1-.102-.042.2.2 0 0 1-.072-.077.2.2 0 0 1-.025-.097q.048-5.722.034-11.377c-.004-1.108.275-2.129.6-3.176a.44.44 0 0 0-.034-.345c-1.11-2.009-.128-4.16-1.042-6.242l-.627-1.346-.234-.341-.562-.783a.14.14 0 0 1-.028-.078.14.14 0 0 1 .022-.079.2.2 0 0 1 .064-.059.2.2 0 0 1 .089-.022zm11.183 7.247.023 2.244a289 289 0 0 1-.046 5.483q-.004.298-.577.862-.37.652-1.526.394-.297-.037-.434.05-.177.115-.015.288.132.143.438.173.49.672 1.201 1.087l.808.626.185 1.499-.034 6.301c-.057.968.136 2.616-.374 3.441q-.253.189-.302.405-.042.182.166.215.374.063.702-.215c.351-.269.668-.448 1.167-.48 7.868-.491 8.385-8.351 8.192-13.532-.034-.856.125-1.618.661-2.238q.17-.195-.106-.245-.819-.146-.913-.78-.465-3.023-2.485-5.37-1.566-1.522-3.794-1.965a18.5 18.5 0 0 0-2.631-.328q-.325-.017-.321.268zM158.33 66.915l.699.59 2.846 2.53q.136.118.004.235l-3.436 3.043a.16.16 0 0 1-.105.038.16.16 0 0 1-.106-.038l-3.447-3.02q-.147-.129 0-.259zm2.453 3.303a.1.1 0 0 0 .022-.029.08.08 0 0 0-.001-.068.1.1 0 0 0-.022-.03l-2.395-2.087a.1.1 0 0 0-.072-.026.1.1 0 0 0-.072.026l-2.373 2.098a.1.1 0 0 0-.022.03.1.1 0 0 0-.008.034.1.1 0 0 0 .008.034q.009.015.023.029l2.395 2.088a.1.1 0 0 0 .072.026.1.1 0 0 0 .072-.026l2.373-2.098Zm-10.802.774-36.659-.278-61.943-.292-33.517-.159a.85.85 0 0 0-.351.073.49.49 0 0 1-.442-.02.4.4 0 0 0-.185-.043 178 178 0 0 0-8.71.035.03.03 0 0 1-.022-.026q-.009-.158-.012-.049 0 .02.023.02c4.088-.066 8.302-.209 12.255-.225a34678 34678 0 0 0 30.236-.14l99.421-.503a.47.47 0 0 0 .317-.12l.525-.48q.196-.18.396 0l1.348 1.21q.182.165 0 .331l-1.453 1.316a.03.03 0 0 1-.031 0q-.94-.72-1.196-.65m116.937-1.11 25.295.123q.004.102-.098.331l-26.518.093-58.926.285q-19.76.033-39.532.222c-.574.007-.729-.053-1.114.365a1.1 1.1 0 0 1-.389.268.27.27 0 0 1-.309-.046l-1.397-1.23q-.064-.02-.091-.096a.1.1 0 0 1-.002-.06.1.1 0 0 1 .033-.053l1.502-1.32q.167-.144.332 0l.597.521a.47.47 0 0 0 .321.116z" clip-rule="evenodd"/></g><defs><clipPath id="a"><path fill="#fff" d="M0 0h315v74H0z"/></clipPath></defs></svg>